<?xml version="1.0" encoding="UTF-8"?>
<svg xmlns="http://www.w3.org/2000/svg" viewBox="0 0 275.63 215.26">
  <defs>
    <style>
      .cls-1 {
        fill: #2158c3;
      }

      .cls-2 {
        isolation: isolate;
      }

      .cls-3 {
        mix-blend-mode: overlay;
      }
    </style>
  </defs>
  <g class="cls-2">
    <g id="Layer_2" data-name="Layer 2">
      <g id="PRINT">
        <g class="cls-3">
          <g>
            <path class="cls-1" d="M258.1,104.82h-10.46V14.09h-108.34v29.69H34.68v61.03H14.09v47.31h11.87v49.03h235.58v-96.35h-3.43ZM261.22,132.93l-2.46,2.46h-.5v-1.4l2.96-2.96v1.9ZM261.22,182.08l-2.96,2.96v-1.9l2.96-2.96v1.9ZM261.22,179.74l-2.96,2.96v-1.9l2.96-2.96v1.9ZM261.22,177.4l-2.96,2.96v-1.9l2.96-2.96v1.9ZM261.22,175.06l-2.96,2.96v-1.9l2.96-2.96v1.9ZM261.22,172.72l-2.96,2.96v-1.9l2.96-2.96v1.9ZM261.22,170.38l-2.96,2.96v-1.9l2.96-2.96v1.9ZM258.26,166.29h2.37l-2.37,2.37v-2.37ZM260.11,165.98h-.8v-30.27h.8v30.27ZM258.99,165.98h-.73v-30.27h.73v30.27ZM261.22,107.18l-2.96,2.96v-1.9l2.96-2.96v1.9ZM257.97,108.09h-1.9l2.96-2.96h1.9l-2.96,2.96ZM261.22,130.59l-2.96,2.96v-1.9l2.96-2.96v1.9ZM261.22,128.25l-2.96,2.96v-1.9l2.96-2.96v1.9ZM261.22,125.9l-2.96,2.96v-1.9l2.96-2.96v1.9ZM261.22,123.56l-2.96,2.96v-1.9l2.96-2.96v1.9ZM261.22,121.22l-2.96,2.96v-1.9l2.96-2.96v1.9ZM261.22,118.88l-2.96,2.96v-1.9l2.96-2.96v1.9ZM261.22,116.54l-2.96,2.96v-1.9l2.96-2.96v1.9ZM261.22,114.2l-2.96,2.96v-1.9l2.96-2.96v1.9ZM261.22,111.86l-2.96,2.96v-1.9l2.96-2.96v1.9ZM261.22,109.52l-2.96,2.96v-1.9l2.96-2.96v1.9ZM258.59,105.13l-2.96,2.96h-1.9l2.96-2.96h1.9ZM251.38,108.09l2.96-2.96h1.9l-2.96,2.96h-1.9ZM253.9,105.13l-2.96,2.96h-1.9l2.96-2.96h1.9ZM251.56,105.13l-2.96,2.96h-1.9l2.96-2.96h1.9ZM249.21,105.13l-2.96,2.96h-1.9l2.98-2.98h0s1.89.01,1.89.01ZM237.93,105.13h1.9l-2.96,2.96h-1.49v-.41l2.55-2.55ZM235.38,107.24v-2.11h2.11l-2.11,2.11ZM240.28,105.13h1.9l-2.96,2.96h-1.9l2.96-2.96ZM242.62,105.13h1.74v-1.74l2.96-2.96v1.9l-5.76,5.76h-1.9l2.96-2.96ZM247.33,18.38v1.9l-2.96,2.96v-1.9l2.96-2.96ZM244.36,20.89v-1.9l2.96-2.96v1.9l-2.96,2.96ZM247.33,20.72v1.9l-2.96,2.96v-1.9l2.96-2.96ZM247.33,23.06v1.9l-2.96,2.96v-1.9l2.96-2.96ZM247.33,25.41v1.9l-2.96,2.96v-1.9l2.96-2.96ZM247.33,27.75v1.9l-2.96,2.96v-1.9l2.96-2.96ZM247.33,30.1v1.9l-2.96,2.96v-1.9l2.96-2.96ZM247.33,32.44v1.9l-2.96,2.96v-1.9l2.96-2.96ZM247.33,34.79v1.9l-2.96,2.96v-1.9l2.96-2.96ZM247.33,37.13v1.9l-2.96,2.96v-1.9l2.96-2.96ZM247.33,39.47v1.9l-2.96,2.96v-1.9l2.96-2.96ZM247.33,41.82v1.9l-2.96,2.96v-1.9l2.96-2.96ZM247.33,44.16v1.9l-2.96,2.96v-1.9l2.96-2.96ZM247.33,46.51v1.9l-2.96,2.96v-1.9l2.96-2.96ZM247.33,48.85v1.9l-2.96,2.96v-1.9l2.96-2.96ZM247.33,51.2v1.9l-2.96,2.96v-1.9l2.96-2.96ZM247.33,53.54v1.9l-2.96,2.96v-1.9l2.96-2.96ZM247.33,55.89v1.9l-2.96,2.96v-1.9l2.96-2.96ZM247.33,58.23v1.9l-2.96,2.96v-1.9l2.96-2.96ZM247.33,60.57v1.9l-2.96,2.96v-1.9l2.96-2.96ZM247.33,62.92v1.9l-2.96,2.96v-1.9l2.96-2.96ZM247.33,65.26v1.9l-2.96,2.96v-1.9l2.96-2.96ZM247.33,67.61v1.9l-2.96,2.96v-1.9l2.96-2.96ZM247.33,69.95v1.9l-2.96,2.96v-1.9l2.96-2.96ZM247.33,72.3v1.9l-2.96,2.96v-1.9l2.96-2.96ZM247.33,74.64v1.9l-2.96,2.96v-1.9l2.96-2.96ZM247.33,76.98v1.9l-2.96,2.96v-1.9l2.96-2.96ZM247.33,79.33v1.9l-2.96,2.96v-1.9l2.96-2.96ZM247.33,81.67v1.9l-2.96,2.96v-1.9l2.96-2.96ZM247.33,84.02v1.9l-2.96,2.96v-1.9l2.96-2.96ZM247.33,86.36v1.9l-2.96,2.96v-1.9l2.96-2.96ZM247.33,88.71v1.9l-2.96,2.96v-1.9l2.96-2.96ZM247.33,91.05v1.9l-2.96,2.96v-1.9l2.96-2.96ZM247.33,93.4v1.9l-2.96,2.96v-1.9l2.96-2.96ZM247.33,95.74v1.9l-2.96,2.96v-1.9l2.96-2.96ZM247.33,98.08v1.9l-2.96,2.96v-1.9l2.96-2.96ZM247.33,102.77v1.9l-3.42,3.42h-1.9l5.32-5.32ZM247.33,14.41v1.18l-2.96,2.96v-1.18h-.72l2.96-2.96h.72ZM246.16,14.41l-2.96,2.96h-1.9l2.96-2.96h1.9ZM243.82,14.41l-2.96,2.96h-1.9l2.96-2.96h1.9ZM241.47,14.41l-2.96,2.96h-1.9l2.96-2.96h1.9ZM239.13,14.41l-2.96,2.96h-1.9l2.96-2.96h1.9ZM236.78,14.41l-2.96,2.96h-1.9l2.96-2.96h1.9ZM234.44,14.41l-2.96,2.96h-1.9l2.96-2.96h1.9ZM232.09,14.41l-2.96,2.96h-1.9l2.96-2.96h1.9ZM229.75,14.41l-2.96,2.96h-1.9l2.96-2.96h1.9ZM227.41,14.41l-2.96,2.96h-1.9l2.96-2.96h1.9ZM221.36,15.5v-1.09h1.35l-1.35,1.35v-.26ZM221.36,16.59v-.39l1.8-1.8h1.9l-2.96,2.96h-.73v-.78ZM169.23,14.41h51.82v.78h-51.82v-.78ZM169.23,15.5h51.82v.78h-51.82v-.78ZM169.23,16.59h51.82v.78h-51.82v-.78ZM221.36,17.69h22.69v87.13h-8.67v-18.35h-.16c-10.15,0-18.41,8.22-18.5,18.35h-73.84V17.69h78.47ZM217.04,104.82c.08-9.91,8.12-17.95,18.03-18.03v18.03h-18.03ZM235.07,105.13v2.96h-18.03v-2.96h18.03ZM214.89,108.09h-1.9l2.96-2.96h.77v1.13l-1.83,1.83ZM216.72,106.71v1.39h-1.39l1.39-1.39ZM88.96,121.67h-1.66v-.24l2.96-2.96v1.9l-1.3,1.3ZM90.26,120.81v.86h-.86l.86-.86ZM84.87,105.13h1.9l-2.96,2.96h-.42v-1.47l1.49-1.49ZM83.38,106.18v-1.04h1.04l-1.04,1.04ZM87.21,105.13h1.9l-2.96,2.96h-1.9l2.96-2.96ZM89.55,105.13h1.9l-3.01,3.01h0s-1.14,1.14-1.14,1.14v-1.19h-.71l2.96-2.96ZM87.3,120.99v-1.9l2.96-2.96v1.9l-2.96,2.96ZM87.3,118.65v-1.9l2.96-2.96v1.9l-2.96,2.96ZM87.3,116.31v-1.9l2.96-2.96v1.9l-2.96,2.96ZM87.3,113.97v-1.9l2.96-2.96v1.9l-2.96,2.96ZM87.3,111.62v-1.9l4.6-4.6h1.9l-2.96,2.96h-.57v.57l-2.96,2.96ZM94.23,105.13h1.9l-2.96,2.96h-1.9l2.96-2.96ZM96.57,105.13h1.9l-2.96,2.96h-1.9l2.96-2.96ZM98.92,105.13h1.9l-2.96,2.96h-1.9l2.96-2.96ZM101.26,105.13h1.9l-2.96,2.96h-1.9l2.96-2.96ZM103.6,105.13h1.9l-2.96,2.96h-1.9l2.96-2.96ZM105.94,105.13h1.9l-2.96,2.96h-1.9l2.96-2.96ZM108.28,105.13h1.9l-2.96,2.96h-1.9l2.96-2.96ZM110.62,105.13h1.9l-2.96,2.96h-1.9l2.96-2.96ZM112.96,105.13h1.9l-2.96,2.96h-1.9l2.96-2.96ZM115.3,105.13h1.9l-2.96,2.96h-1.9l2.96-2.96ZM117.64,105.13h1.9l-2.96,2.96h-1.9l2.96-2.96ZM119.98,105.13h1.9l-2.96,2.96h-1.9l2.96-2.96ZM122.32,105.13h1.9l-2.96,2.96h-1.9l2.96-2.96ZM124.66,105.13h1.9l-2.96,2.96h-1.9l2.96-2.96ZM127.01,105.13h1.9l-2.96,2.96h-1.9l2.96-2.96ZM129.35,105.13h1.9l-2.96,2.96h-1.9l2.96-2.96ZM131.69,105.13h1.9l-2.96,2.96h-1.9l2.96-2.96ZM134.03,105.13h1.9l-2.96,2.96h-1.9l2.96-2.96ZM136.37,105.13h1.9l-2.96,2.96h-1.9l2.96-2.96ZM138.71,105.13h.9v-.9l2.96-2.96v1.9l-4.93,4.93h-1.9l2.96-2.96ZM139.61,101.44v-1.9l2.96-2.96v1.9l-2.96,2.96ZM142.57,98.92v1.9l-2.96,2.96v-1.9l2.96-2.96ZM139.61,99.1v-1.9l2.96-2.96v1.9l-2.96,2.96ZM139.61,96.76v-1.9l2.96-2.96v1.9l-2.96,2.96ZM139.61,94.42v-1.9l2.96-2.96v1.9l-2.96,2.96ZM139.61,92.08v-1.9l2.96-2.96v1.9l-2.96,2.96ZM139.61,89.74v-1.9l2.96-2.96v1.9l-2.96,2.96ZM139.61,87.4v-1.9l2.96-2.96v1.9l-2.96,2.96ZM139.61,85.06v-1.9l2.96-2.96v1.9l-2.96,2.96ZM139.61,82.72v-1.9l2.96-2.96v1.9l-2.96,2.96ZM139.61,80.38v-1.9l2.96-2.96v1.9l-2.96,2.96ZM139.61,78.04v-1.9l2.96-2.96v1.9l-2.96,2.96ZM139.61,75.69v-1.9l2.96-2.96v1.9l-2.96,2.96ZM139.61,73.35v-1.9l2.96-2.96v1.9l-2.96,2.96ZM139.61,71.01v-1.9l2.96-2.96v1.9l-2.96,2.96ZM139.61,68.67v-1.9l2.96-2.96v1.9l-2.96,2.96ZM139.61,66.33v-1.9l2.96-2.96v1.9l-2.96,2.96ZM139.61,63.99v-1.9l2.96-2.96v1.9l-2.96,2.96ZM139.61,61.65v-1.9l2.96-2.96v1.9l-2.96,2.96ZM139.61,59.31v-1.9l2.96-2.96v1.9l-2.96,2.96ZM139.61,56.97v-1.9l2.96-2.96v1.9l-2.96,2.96ZM139.61,54.63v-1.9l2.96-2.96v1.9l-2.96,2.96ZM139.61,52.29v-1.9l2.96-2.96v1.9l-2.96,2.96ZM139.61,49.95v-1.9l2.96-2.96v1.9l-2.96,2.96ZM139.61,47.6v-.54h-1.36l4.32-4.32v1.9l-2.96,2.96ZM142.57,103.61v1.52h.37l-2.96,2.96h-1.9l4.49-4.49ZM143.39,105.13h1.9l-2.96,2.96h-1.9l2.96-2.96ZM145.73,105.13h1.9l-2.96,2.96h-1.9l2.96-2.96ZM148.07,105.13h1.9l-2.96,2.96h-1.9l2.96-2.96ZM150.41,105.13h1.9l-2.96,2.96h-1.9l2.96-2.96ZM152.75,105.13h1.9l-2.96,2.96h-1.9l2.96-2.96ZM155.1,105.13h1.9l-2.96,2.96h-1.9l2.96-2.96ZM157.44,105.13h1.9l-2.96,2.96h-1.9l2.96-2.96ZM159.78,105.13h1.9l-2.96,2.96h-1.9l2.96-2.96ZM162.12,105.13h1.9l-2.96,2.96h-1.9l2.96-2.96ZM164.46,105.13h1.9l-2.96,2.96h-1.9l2.96-2.96ZM166.8,105.13h1.9l-2.96,2.96h-1.9l2.96-2.96ZM169.14,105.13h1.9l-2.96,2.96h-1.9l2.96-2.96ZM171.48,105.13h1.9l-2.96,2.96h-1.9l2.96-2.96ZM173.82,105.13h1.9l-2.96,2.96h-1.9l2.96-2.96ZM176.16,105.13h1.9l-2.96,2.96h-1.9l2.96-2.96ZM178.5,105.13h1.9l-2.96,2.96h-1.9l2.96-2.96ZM180.84,105.13h1.9l-2.96,2.96h-1.9l2.96-2.96ZM183.19,105.13h1.9l-2.96,2.96h-1.9l2.96-2.96ZM185.53,105.13h1.9l-2.96,2.96h-1.9l2.96-2.96ZM187.87,105.13h1.9l-2.96,2.96h-1.9l2.96-2.96ZM190.21,105.13h1.9l-2.96,2.96h-1.9l2.96-2.96ZM192.55,105.13h1.9l-2.96,2.96h-1.9l2.96-2.96ZM194.89,105.13h1.9l-2.96,2.96h-1.9l2.96-2.96ZM197.23,105.13h1.9l-2.96,2.96h-1.9l2.96-2.96ZM199.57,105.13h1.9l-2.96,2.96h-1.9l2.96-2.96ZM201.91,105.13h1.9l-2.96,2.96h-1.9l2.96-2.96ZM204.25,105.13h1.9l-2.96,2.96h-1.9l2.96-2.96ZM206.59,105.13h1.9l-2.96,2.96h-1.9l2.96-2.96ZM208.93,105.13h1.9l-2.96,2.96h-1.9l2.96-2.96ZM211.27,105.13h1.9l-2.96,2.96h-1.9l2.96-2.96ZM213.62,105.13h1.9l-2.96,2.96h-1.9l2.96-2.96ZM167.95,17.37l.97-.97v.97h-.97ZM168.92,14.41v1.55l-1.41,1.41h-1.9l2.96-2.96h.35ZM168.13,14.41l-2.96,2.96h-1.9l2.96-2.96h1.9ZM165.79,14.41l-2.96,2.96h-1.9l2.96-2.96h1.9ZM163.45,14.41l-2.96,2.96h-1.9l2.96-2.96h1.9ZM161.1,14.41l-2.96,2.96h-1.9l2.96-2.96h1.9ZM158.76,14.41l-2.96,2.96h-1.9l2.96-2.96h1.9ZM156.42,14.41l-2.96,2.96h-1.9l2.96-2.96h1.9ZM154.08,14.41l-2.96,2.96h-1.9l2.96-2.96h1.9ZM151.74,14.41l-2.96,2.96h-1.9l2.96-2.96h1.9ZM149.4,14.41l-2.96,2.96h-1.9l2.96-2.96h1.9ZM139.61,14.41h.42l-.42.42v-.42ZM139.61,15.28l.87-.87h1.9l-2.77,2.77v-1.9ZM139.61,17.62l3.21-3.21h1.9l-5.11,5.11v-1.9ZM139.61,19.96l5.55-5.55h1.9l-2.96,2.96h-1.52v1.52l-2.96,2.96v-1.9ZM139.61,22.3l2.96-2.96v1.9l-2.96,2.96v-1.9ZM139.61,24.64l2.96-2.96v1.9l-2.96,2.96v-1.9ZM139.61,26.98l2.96-2.96v1.9l-2.96,2.96v-1.9ZM139.61,29.32l2.96-2.96v1.9l-2.96,2.96v-1.9ZM139.61,31.66l2.96-2.96v1.9l-2.96,2.96v-1.9ZM139.61,34l2.96-2.96v1.9l-2.96,2.96v-1.9ZM139.61,36.34l2.96-2.96v1.9l-2.96,2.96v-1.9ZM139.61,38.69l2.96-2.96v1.9l-2.96,2.96v-1.9ZM139.61,41.03l2.96-2.96v1.9l-2.96,2.96v-1.9ZM139.61,44.1v-.73l2.96-2.96v1.9l-4.76,4.76h-1.9l2.96-2.96h.73ZM138.43,44.1l-2.96,2.96h-1.9l2.96-2.96h1.9ZM136.09,44.1l-2.96,2.96h-1.9l2.96-2.96h1.9ZM133.75,44.1l-2.96,2.96h-1.9l2.96-2.96h1.9ZM131.41,44.1l-2.96,2.96h-1.9l2.96-2.96h1.9ZM129.07,44.1l-2.96,2.96h-1.9l2.96-2.96h1.9ZM126.73,44.1l-2.96,2.96h-1.9l2.96-2.96h1.9ZM124.39,44.1l-2.96,2.96h-1.9l2.96-2.96h1.9ZM122.05,44.1l-2.96,2.96h-1.9l2.96-2.96h1.9ZM119.71,44.1l-2.96,2.96h-1.9l2.96-2.96h1.9ZM117.37,44.1l-2.96,2.96h-1.9l2.96-2.96h1.9ZM115.02,44.1l-2.96,2.96h-1.9l2.96-2.96h1.9ZM112.68,44.1l-2.96,2.96h-1.9l2.96-2.96h1.9ZM110.34,44.1l-2.96,2.96h-1.9l2.96-2.96h1.9ZM103.5,45.97v-1.87h2.16l-2.16,2.16v-.29ZM103.5,46.71l2.6-2.6h1.9l-2.96,2.96h-1.54v-.36ZM72.92,44.1h30.27v.78h-30.27v-.78ZM72.92,45.19h30.27v.78h-30.27v-.78ZM72.92,46.29h30.27v.78h-30.27v-.78ZM103.5,47.38h35.8v57.44h-55.91v-18.33h-.16c-10.14,0-18.39,8.21-18.49,18.33h-26.47v-57.44h65.23ZM65.06,104.82c.09-9.9,8.12-17.93,18.02-18.01v18.01h-18.02ZM83.07,105.13v2.96h-18.02v-2.96h18.02ZM63.7,108.09h-1.89l2.93-2.93v1.89l-1.04,1.04ZM64.73,107.5v.59h-.59l.59-.59ZM62.09,151.82h-1.9l2.96-2.96h1.57v.32l-2.64,2.64ZM64.73,149.62v1.9l-.3.3h-1.9l2.2-2.2ZM59.75,151.82h-1.9l2.96-2.96h1.9l-2.96,2.96ZM26.28,196.99v-1.9l2.96-2.96v1.9l-2.96,2.96ZM29.24,194.47v1.9l-2.96,2.96v-1.9l2.96-2.96ZM26.28,194.65v-1.9l2.96-2.96v1.9l-2.96,2.96ZM26.28,192.31v-1.9l2.96-2.96v1.9l-2.96,2.96ZM26.28,189.97v-1.9l2.96-2.96v1.9l-2.96,2.96ZM26.28,187.63v-1.9l2.96-2.96v1.9l-2.96,2.96ZM26.28,185.29v-1.9l2.96-2.96v1.9l-2.96,2.96ZM26.28,182.95v-1.9l2.96-2.96v1.9l-2.96,2.96ZM26.28,180.61v-1.9l2.96-2.96v1.9l-2.96,2.96ZM26.28,178.27v-1.9l2.96-2.96v1.9l-2.96,2.96ZM26.28,175.93v-1.9l2.96-2.96v1.9l-2.96,2.96ZM26.28,173.59v-1.9l2.96-2.96v1.9l-2.96,2.96ZM26.28,171.24v-1.9l2.96-2.96v1.9l-2.96,2.96ZM26.28,168.9v-1.9l2.96-2.96v1.9l-2.96,2.96ZM26.28,166.56v-1.9l2.96-2.96v1.9l-2.96,2.96ZM26.28,164.22v-1.9l2.96-2.96v1.9l-2.96,2.96ZM26.28,161.88v-1.9l2.96-2.96v1.9l-2.96,2.96ZM26.28,159.54v-1.9l2.96-2.96v1.9l-2.96,2.96ZM26.28,157.2v-1.9l2.96-2.96v1.9l-2.96,2.96ZM26.28,154.86v-1.9l4.11-4.11h1.9l-2.96,2.96h-.08v.08l-2.96,2.96ZM38.64,105.13l-2.96,2.96h-1.89l4.17-4.17v1.2h.69ZM57.14,108.09l2.96-2.96h1.89l-4.13,4.13v-1.17h-.73ZM57.86,144.04v-18l.04-.04h2.93v18.03h-2.96ZM60.83,144.36v4.18h-2.96v-4.18h2.96ZM60.55,125.7l.28-.28v.28h-.28ZM60.1,125.7h-1.89l2.61-2.61v1.89l-.72.72ZM57.86,125.6v-1.89l2.96-2.96v1.89l-2.96,2.96ZM57.86,123.27v-1.89l2.96-2.96v1.89l-2.96,2.96ZM57.86,120.93v-1.89l2.96-2.96v1.89l-2.96,2.96ZM57.86,118.6v-1.89l2.96-2.96v1.89l-2.96,2.96ZM57.86,116.26v-1.89l2.96-2.96v1.89l-2.96,2.96ZM57.86,113.93v-1.89l2.96-2.96v1.89l-2.96,2.96ZM56.69,108.09h-1.89l2.96-2.96h1.89l-2.96,2.96ZM54.36,108.09h-1.89l2.96-2.96h1.89l-2.96,2.96ZM52.02,108.09h-1.89l2.96-2.96h1.89l-2.96,2.96ZM49.69,108.09h-1.89l2.96-2.96h1.89l-2.96,2.96ZM47.35,108.09h-1.89l2.96-2.96h1.89l-2.96,2.96ZM45.02,108.09h-1.89l2.96-2.96h1.89l-2.96,2.96ZM42.68,108.09h-1.89l2.96-2.96h1.89l-2.96,2.96ZM40.35,108.09h-1.89l2.96-2.96h1.89l-2.96,2.96ZM38.02,108.09h-1.89l2.96-2.96h1.89l-2.96,2.96ZM57.55,108.41v17.29h0c-10.12.11-18.33,8.37-18.33,18.51v.16h18.33v4.18H17.69v-40.13h39.86ZM57.55,126.02v18.02h0s-18.01,0-18.01,0c.08-9.9,8.12-17.94,18.01-18.03ZM32.73,148.85h1.9l-2.96,2.96h-1.9l2.96-2.96ZM35.07,148.85h1.9l-2.96,2.96h-1.9l2.96-2.96ZM37.41,148.85h1.9l-2.96,2.96h-1.9l2.96-2.96ZM39.75,148.85h1.9l-2.96,2.96h-1.9l2.96-2.96ZM42.09,148.85h1.9l-2.96,2.96h-1.9l2.96-2.96ZM44.43,148.85h1.9l-2.96,2.96h-1.9l2.96-2.96ZM46.77,148.85h1.9l-2.96,2.96h-1.9l2.96-2.96ZM49.11,148.85h1.9l-2.96,2.96h-1.9l2.96-2.96ZM51.45,148.85h1.9l-2.96,2.96h-1.9l2.96-2.96ZM53.79,148.85h1.9l-2.96,2.96h-1.9l2.96-2.96ZM56.13,148.85h1.9l-2.96,2.96h-1.9l2.96-2.96ZM58.48,148.85h1.9l-2.96,2.96h-1.9l2.96-2.96ZM60.83,108.09v.54l-2.96,2.96v-1.89l4.57-4.57h1.89l-2.96,2.96h-.54ZM71.47,47.06l1.13-1.13v1.13h-1.13ZM72.6,44.1v1.39l-1.57,1.57h-1.89l2.96-2.96h.5ZM71.66,44.1l-2.96,2.96h-1.89l2.96-2.96h1.89ZM69.32,44.1l-2.96,2.96h-1.89l2.96-2.96h1.89ZM66.99,44.1l-2.96,2.96h-1.89l2.96-2.96h1.89ZM64.65,44.1l-2.96,2.96h-1.89l2.96-2.96h1.89ZM62.32,44.1l-2.96,2.96h-1.89l2.96-2.96h1.89ZM59.98,44.1l-2.96,2.96h-1.89l2.96-2.96h1.89ZM57.65,44.1l-2.96,2.96h-1.89l2.96-2.96h1.89ZM55.31,44.1l-2.96,2.96h-1.89l2.96-2.96h1.89ZM52.98,44.1l-2.96,2.96h-1.89l2.96-2.96h1.89ZM50.64,44.1l-2.96,2.96h-1.89l2.96-2.96h1.89ZM48.31,44.1l-2.96,2.96h-1.89l2.96-2.96h1.89ZM45.98,44.1l-2.96,2.96h-1.89l2.96-2.96h1.89ZM43.64,44.1l-2.96,2.96h-1.89l2.96-2.96h1.89ZM34.99,44.1h1.64l-1.64,1.64v-1.64ZM34.99,46.19l2.09-2.09h1.89l-3.98,3.98v-1.89ZM34.99,48.52l4.42-4.42h1.89l-2.96,2.96h-.39v.39l-2.96,2.96v-1.89ZM34.99,50.86l2.96-2.96v1.89l-2.96,2.96v-1.89ZM34.99,53.19l2.96-2.96v1.89l-2.96,2.96v-1.89ZM34.99,55.53l2.96-2.96v1.89l-2.96,2.96v-1.89ZM34.99,57.86l2.96-2.96v1.89l-2.96,2.96v-1.89ZM34.99,60.2l2.96-2.96v1.89l-2.96,2.96v-1.89ZM34.99,62.53l2.96-2.96v1.89l-2.96,2.96v-1.89ZM34.99,64.87l2.96-2.96v1.89l-2.96,2.96v-1.89ZM34.99,67.2l2.96-2.96v1.89l-2.96,2.96v-1.89ZM34.99,69.54l2.96-2.96v1.89l-2.96,2.96v-1.89ZM34.99,71.87l2.96-2.96v1.89l-2.96,2.96v-1.89ZM34.99,74.2l2.96-2.96v1.89l-2.96,2.96v-1.89ZM34.99,76.54l2.96-2.96v1.89l-2.96,2.96v-1.89ZM34.99,78.87l2.96-2.96v1.89l-2.96,2.96v-1.89ZM34.99,81.21l2.96-2.96v1.89l-2.96,2.96v-1.89ZM34.99,83.54l2.96-2.96v1.89l-2.96,2.96v-1.89ZM34.99,85.88l2.96-2.96v1.89l-2.96,2.96v-1.89ZM34.99,88.21l2.96-2.96v1.89l-2.96,2.96v-1.89ZM34.99,90.55l2.96-2.96v1.89l-2.96,2.96v-1.89ZM34.99,92.88l2.96-2.96v1.89l-2.96,2.96v-1.89ZM34.99,95.22l2.96-2.96v1.89l-2.96,2.96v-1.89ZM34.99,97.55l2.96-2.96v1.89l-2.96,2.96v-1.89ZM34.99,99.89l2.96-2.96v1.89l-2.96,2.96v-1.89ZM34.99,102.22l2.96-2.96v1.89l-2.96,2.96v-1.89ZM34.99,105.13v-.58l2.96-2.96v1.89l-4.61,4.61h-1.89l2.96-2.96h.58ZM33.97,105.13l-2.96,2.96h-1.89l2.96-2.96h1.89ZM31.64,105.13l-2.96,2.96h-1.89l2.96-2.96h1.89ZM29.31,105.13l-2.96,2.96h-1.89l2.96-2.96h1.89ZM26.97,105.13l-2.96,2.96h-1.89l2.96-2.96h1.89ZM24.64,105.13l-2.96,2.96h-1.89l2.96-2.96h1.89ZM22.3,105.13l-2.96,2.96h-1.89l2.96-2.96h1.89ZM14.41,105.13h.89l-.89.89v-.89ZM14.41,108.25v-1.79l1.33-1.33h1.89l-3.22,3.22v-.1ZM14.41,108.8l3.67-3.67h1.89l-5.56,5.56v-1.89ZM14.41,111.13l2.96-2.96v1.89l-2.96,2.96v-1.89ZM14.41,113.47l2.96-2.96v1.89l-2.96,2.96v-1.89ZM14.41,115.8l2.96-2.96v1.89l-2.96,2.96v-1.89ZM14.41,118.14l2.96-2.96v1.89l-1.91,1.91h-1.05v-.84ZM16.59,118.98h-.69l1.47-1.47v1.47h-.78ZM17.37,119.29v15.29h-.78v-15.29h.78ZM16.28,119.29v15.29h-.78v-15.29h.78ZM14.41,119.29h.78v15.29h-.78v-15.29ZM14.41,134.9h1.47l-1.47,1.47v-1.47ZM14.41,136.81l1.91-1.91h1.05v.84l-2.96,2.96v-1.89ZM14.41,139.15l2.96-2.96v1.89l-2.96,2.96v-1.89ZM14.41,141.48l2.96-2.96v1.89l-2.96,2.96v-1.89ZM14.41,143.82l2.96-2.96v1.89l-2.96,2.96v-1.89ZM14.41,146.15l2.96-2.96v1.89l-2.96,2.96v-1.89ZM14.41,148.7v-.21l2.96-2.96v1.89l-2.96,2.96v-1.68ZM14.41,151.82v-.99l2.96-2.96v.99h.9l-2.96,2.96h-.9ZM15.75,151.82l2.96-2.96h1.89l-2.96,2.96h-1.89ZM18.08,151.82l2.96-2.96h1.89l-2.96,2.96h-1.89ZM20.42,151.82l2.96-2.96h1.89l-2.96,2.96h-1.89ZM22.75,151.82l2.96-2.96h1.88l-2.96,2.96h-1.88ZM25.08,151.82l2.96-2.96h1.9l-3.67,3.67v-.7h-1.19ZM26.28,200.85v-1.07l2.96-2.96v1h.9l-3.03,3.03h-.83ZM27.55,200.85l3.03-3.03h1.9l-3.03,3.03h-1.9ZM29.89,200.85l3.03-3.03h1.9l-3.03,3.03h-1.9ZM32.23,200.85l3.03-3.03h1.9l-3.03,3.03h-1.9ZM34.57,200.85l3.03-3.03h1.9l-3.03,3.03h-1.9ZM40.99,199.73v1.12h-1.73l1.73-1.7v.58ZM40.99,198.62v.09l-2.18,2.14h-1.9l3.03-3.03h1.05v.8ZM71.57,200.85h-30.27v-.8h30.27v.8ZM71.57,199.73h-30.27v-.8h30.27v.8ZM71.57,198.62h-30.27v-.8h30.27v.8ZM40.99,197.5h-11.43v-45.37h35.19c.09,10.12,8.35,18.33,18.49,18.33h.16v-18.33h3.59v45.37h-45.99ZM83.07,151.82h-18.02v-2.96h18.02v2.96ZM83.08,152.13v18.01c-9.89-.08-17.92-8.12-18.02-18.01h18.02ZM84.22,148.85h1.9l-2.73,2.73v-1.9l.83-.83ZM83.39,149.24v-.39h.39l-.39.39ZM88.14,140.26h1.9l-2.74,2.74v-1.9l.84-.84ZM87.3,140.66v-.4h.4l-.4.4ZM90.26,140.48v1.9l-2.96,2.96v-1.9l2.96-2.96ZM90.26,142.82v1.9l-2.96,2.96v-1.9l2.96-2.96ZM90.26,145.16v1.9l-4.76,4.76h-1.9l2.96-2.96h.73v-.73l2.96-2.96ZM87.3,194.49v-1.9l2.96-2.96v1.9l-2.96,2.96ZM90.26,191.98v1.9l-2.96,2.96v-1.9l2.96-2.96ZM87.3,192.15v-1.9l2.96-2.96v1.9l-2.96,2.96ZM87.3,189.81v-1.9l2.96-2.96v1.9l-2.96,2.96ZM87.3,187.47v-1.9l2.96-2.96v1.9l-2.96,2.96ZM87.3,185.13v-1.9l2.96-2.96v1.9l-2.96,2.96ZM87.3,182.79v-1.9l2.96-2.96v1.9l-2.96,2.96ZM87.3,180.45v-1.9l2.96-2.96v1.9l-2.96,2.96ZM87.3,178.11v-1.9l2.96-2.96v1.9l-2.96,2.96ZM87.3,175.77v-1.9l2.96-2.96v1.9l-2.96,2.96ZM87.3,173.43v-1.9l2.96-2.96v1.9l-2.96,2.96ZM87.3,171.09v-1.9l2.96-2.96v1.9l-2.96,2.96ZM87.3,168.75v-1.9l2.96-2.96v1.9l-2.96,2.96ZM87.3,166.4v-1.9l2.96-2.96v1.9l-2.96,2.96ZM87.3,164.06v-1.9l2.96-2.96v1.9l-2.96,2.96ZM87.3,161.72v-1.9l2.96-2.96v1.9l-2.96,2.96ZM87.3,159.38v-1.9l2.96-2.96v1.9l-2.96,2.96ZM87.3,157.04v-1.9l2.96-2.96v1.9l-2.96,2.96ZM87.3,154.7v-1.9l2.96-2.96v1.9l-2.96,2.96ZM87.3,152.36v-.54h-1.35l4.32-4.32v1.9l-2.96,2.96ZM72.27,197.82l-.38.38v-.38h.38ZM71.89,200.05v-1.4l.83-.83h1.9l-2.72,2.72v-.49ZM72.02,200.85l3.03-3.03h1.9l-3.03,3.03h-1.9ZM74.36,200.85l3.03-3.03h1.9l-3.03,3.03h-1.9ZM76.7,200.85l3.03-3.03h1.9l-3.03,3.03h-1.9ZM79.04,200.85l3.03-3.03h1.9l-3.03,3.03h-1.9ZM81.39,200.85l3.03-3.03h1.9l-3.03,3.03h-1.9ZM83.73,200.85l3.03-3.03h.54v-.54l2.96-2.96v1.9l-4.64,4.64h-1.9ZM86.07,200.85l4.19-4.19v1.16h.74l-3.03,3.03h-1.9ZM88.41,200.85l3.03-3.03h1.9l-3.03,3.03h-1.9ZM90.75,200.85l3.03-3.03h1.9l-3.03,3.03h-1.9ZM93.09,200.85l3.03-3.03h1.9l-3.03,3.03h-1.9ZM95.43,200.85l3.03-3.03h1.9l-3.03,3.03h-1.9ZM97.77,200.85l3.03-3.03h1.9l-3.03,3.03h-1.9ZM100.11,200.85l3.03-3.03h1.9l-3.03,3.03h-1.9ZM102.45,200.85l3.03-3.03h1.9l-3.03,3.03h-1.9ZM104.79,200.85l3.03-3.03h1.9l-3.03,3.03h-1.9ZM107.13,200.85l3.03-3.03h1.9l-3.03,3.03h-1.9ZM109.48,200.85l3.03-3.03h1.9l-3.03,3.03h-1.9ZM111.82,200.85l3.03-3.03h1.9l-3.03,3.03h-1.9ZM117.68,199.73v1.12h-1.18l1.18-1.18v.07ZM117.68,198.62v.6l-1.63,1.63h-1.9l3.03-3.03h.49v.8ZM169.81,200.85h-51.82v-.8h51.82v.8ZM169.81,199.73h-51.82v-.8h51.82v.8ZM169.81,198.62h-51.82v-.8h51.82v.8ZM171.03,197.82h1.9l-2.8,2.8v-1.9l.9-.9ZM170.13,198.27v-.46h.46l-.46.46ZM170.34,200.85l3.03-3.03h1.9l-3.03,3.03h-1.9ZM172.68,200.85l3.03-3.03h1.9l-3.03,3.03h-1.9ZM175.02,200.85l3.03-3.03h1.9l-3.03,3.03h-1.9ZM177.36,200.85l3.03-3.03h1.9l-3.03,3.03h-1.9ZM179.7,200.85l3.03-3.03h1.9l-3.03,3.03h-1.9ZM182.04,200.85l3.03-3.03h1.9l-3.03,3.03h-1.9ZM184.38,200.85l3.03-3.03h1.9l-3.03,3.03h-1.9ZM186.72,200.85l3.03-3.03h1.9l-3.03,3.03h-1.9ZM189.06,200.85l3.03-3.03h1.9l-3.03,3.03h-1.9ZM191.4,200.85l3.03-3.03h1.9l-3.03,3.03h-1.9ZM193.74,200.85l3.03-3.03h1.9l-3.03,3.03h-1.9ZM196.09,200.85l3.03-3.03h1.9l-3.03,3.03h-1.9ZM198.43,200.85l3.03-3.03h1.9l-3.03,3.03h-1.9ZM200.77,200.85l3.03-3.03h1.9l-3.03,3.03h-1.9ZM203.11,200.85l3.03-3.03h1.9l-3.03,3.03h-1.9ZM205.45,200.85l3.03-3.03h1.9l-3.03,3.03h-1.9ZM207.79,200.85l3.03-3.03h1.9l-3.03,3.03h-1.9ZM210.13,200.85l3.03-3.03h1.9l-3.03,3.03h-1.9ZM212.47,200.85l3.03-3.03h1.9l-3.03,3.03h-1.9ZM214.81,200.85l3.03-3.03h1.9l-3.03,3.03h-1.9ZM220.99,200.85h-1.5l1.5-1.5v1.5ZM220.99,198.91l-1.94,1.94h-1.9l3.03-3.03h.81v1.09ZM239.34,200.85h-18.03v-2.96h18.03v2.96ZM239.34,197.5h-18.03c.12-9.87,8.15-17.88,18.03-17.96v17.96ZM239.5,179.23c-10.13,0-18.38,8.18-18.5,18.28H90.57v-57.56h-3.59v8.6h-25.84v-40.13h25.84v13.57h3.59v-13.57h167.37v89.1h-18.29v-18.28h-.16ZM240.81,197.82l-1.16,1.16v-1.16h1.16ZM239.65,200.85v-1.43l1.6-1.6h1.9l-3.03,3.03h-.46ZM240.56,200.85l3.03-3.03h1.9l-3.03,3.03h-1.9ZM242.9,200.85l3.03-3.03h1.9l-3.03,3.03h-1.9ZM245.24,200.85l3.03-3.03h1.9l-3.03,3.03h-1.9ZM247.59,200.85l3.03-3.03h1.9l-3.03,3.03h-1.9ZM249.93,200.85l3.03-3.03h1.9l-3.03,3.03h-1.9ZM252.27,200.85l3.03-3.03h1.9l-3.03,3.03h-1.9ZM261.22,200.85h-1.93l1.93-1.93v1.93ZM261.22,198.47l-2.38,2.38h-1.9l1.27-1.27,3.01-3.01v1.9ZM261.22,196.13l-3.23,3.23-1.49,1.49h-1.9l3.03-3.03h.62v-.62l2.96-2.96v1.9ZM261.22,193.79l-2.96,2.96v-1.9l2.96-2.96v1.9ZM261.22,191.45l-2.96,2.96v-1.9l2.96-2.96v1.9ZM261.22,189.11l-2.96,2.96v-1.9l2.96-2.96v1.9ZM261.22,186.77l-2.96,2.96v-1.9l2.96-2.96v1.9ZM258.26,187.39v-1.9l2.96-2.96v1.9l-2.96,2.96ZM261.22,168.04l-2.96,2.96v-1.9l2.82-2.82h.15v1.75ZM261.22,165.98h-.8v-30.27h.8v30.27ZM260.42,135.39h-1.22l2.02-2.02v2.02h-.8Z"/>
            <rect class="cls-1" x="264.81" y="104.96" width="10.83" height=".31"/>
            <rect class="cls-1" x="250.91" y="14.09" width="24.72" height=".31"/>
            <rect class="cls-1" x="264.8" y="200.85" width="10.83" height=".31"/>
            <polygon class="cls-1" points="269.12 107.32 270.22 105.11 271.32 107.32 269.12 107.32"/>
            <polygon class="cls-1" points="271.32 102.9 270.22 105.11 269.12 102.9 271.32 102.9"/>
            <polygon class="cls-1" points="269.12 16.46 270.22 14.25 271.32 16.46 269.12 16.46"/>
            <polygon class="cls-1" points="271.32 198.8 270.22 201.01 269.12 198.8 271.32 198.8"/>
            <polygon class="cls-1" points="259.17 208.74 261.38 209.84 259.17 210.95 259.17 208.74"/>
            <polygon class="cls-1" points="88.21 208.74 90.42 209.84 88.21 210.95 88.21 208.74"/>
            <polygon class="cls-1" points="92.61 210.95 90.4 209.84 92.61 208.74 92.61 210.95"/>
            <polygon class="cls-1" points="28.33 210.95 26.12 209.84 28.33 208.74 28.33 210.95"/>
            <rect class="cls-1" x="270.06" y="15.73" width=".31" height="87.89"/>
            <rect class="cls-1" x="270.06" y="106.51" width=".31" height="93.26"/>
            <rect class="cls-1" x="247.33" y="0" width=".31" height="10.83"/>
            <rect class="cls-1" x="139.3" y="0" width=".31" height="10.83"/>
            <rect class="cls-1" x="34.68" y="0" width=".31" height="40.52"/>
            <polygon class="cls-1" points="245.27 4.31 247.48 5.41 245.27 6.51 245.27 4.31"/>
            <polygon class="cls-1" points="141.66 6.51 139.45 5.41 141.66 4.31 141.66 6.51"/>
            <polygon class="cls-1" points="37.04 6.51 34.83 5.41 37.04 4.31 37.04 6.51"/>
            <polygon class="cls-1" points="137.25 4.31 139.45 5.41 137.25 6.51 137.25 4.31"/>
            <rect class="cls-1" x="36.31" y="5.26" width="101.49" height=".31"/>
            <rect class="cls-1" x="141.09" y="5.26" width="104.75" height=".31"/>
            <rect class="cls-1" x="0" y="104.82" width="10.83" height=".31"/>
            <rect class="cls-1" x="0" y="43.79" width="31.41" height=".31"/>
            <rect class="cls-1" x="0" y="151.82" width="10.83" height=".31"/>
            <rect class="cls-1" x="0" y="200.85" width="22.69" height=".31"/>
            <polygon class="cls-1" points="6.51 149.76 5.41 151.97 4.31 149.76 6.51 149.76"/>
            <polygon class="cls-1" points="6.51 198.8 5.41 201.01 4.31 198.8 6.51 198.8"/>
            <polygon class="cls-1" points="4.31 154.17 5.41 151.96 6.51 154.17 4.31 154.17"/>
            <polygon class="cls-1" points="4.31 107.18 5.41 104.97 6.51 107.18 4.31 107.18"/>
            <polygon class="cls-1" points="4.31 46.15 5.41 43.94 6.51 46.15 4.31 46.15"/>
            <polygon class="cls-1" points="6.51 102.77 5.41 104.98 4.31 102.77 6.51 102.77"/>
            <rect class="cls-1" x="5.26" y="45.05" width=".31" height="58.36"/>
            <rect class="cls-1" x="5.26" y="106.36" width=".31" height="44.14"/>
            <rect class="cls-1" x="5.26" y="153.6" width=".31" height="45.73"/>
            <rect class="cls-1" x="25.96" y="204.43" width=".31" height="10.83"/>
            <rect class="cls-1" x="90.26" y="204.43" width=".31" height="10.83"/>
            <rect class="cls-1" x="261.22" y="204.43" width=".31" height="10.83"/>
            <rect class="cls-1" x="27.76" y="209.69" width="61.55" height=".31"/>
            <rect class="cls-1" x="91.84" y="209.69" width="167.9" height=".31"/>
            <g>
              <path class="cls-1" d="M45.41,176.18c.17-.03.43-.06.7-.06.38,0,.63.07.81.22.15.11.25.29.25.52,0,.29-.19.54-.5.65h0c.28.08.61.31.61.75,0,.25-.1.45-.25.59-.21.19-.54.28-1.03.28-.26,0-.47-.02-.59-.04v-2.92ZM45.79,177.4h.35c.4,0,.64-.21.64-.5,0-.35-.26-.48-.65-.48-.18,0-.28.01-.34.03v.95ZM45.79,178.82c.07.01.18.02.32.02.4,0,.76-.15.76-.58,0-.4-.35-.57-.77-.57h-.32v1.13Z"/>
              <path class="cls-1" d="M49.33,177.72h-1.15v1.07h1.28v.32h-1.67v-2.97h1.6v.32h-1.22v.94h1.15v.32Z"/>
              <path class="cls-1" d="M49.95,176.18c.23-.03.51-.06.81-.06.55,0,.94.13,1.2.37.26.24.42.58.42,1.06s-.15.88-.43,1.15c-.28.28-.73.43-1.31.43-.27,0-.5-.01-.7-.04v-2.92ZM50.34,178.8c.1.02.24.02.39.02.82,0,1.26-.46,1.26-1.26,0-.7-.39-1.14-1.2-1.14-.2,0-.35.02-.45.04v2.34Z"/>
              <path class="cls-1" d="M52.88,176.18c.19-.04.47-.06.73-.06.41,0,.67.07.86.24.15.13.23.33.23.56,0,.39-.25.65-.56.76h0c.23.09.37.3.44.61.1.41.17.7.23.81h-.4c-.05-.08-.11-.34-.2-.71-.09-.41-.25-.56-.59-.58h-.36v1.28h-.38v-2.93ZM53.26,177.53h.39c.41,0,.67-.22.67-.56,0-.38-.28-.55-.68-.55-.18,0-.32.02-.38.04v1.08Z"/>
              <path class="cls-1" d="M57.79,177.59c0,1.02-.62,1.56-1.38,1.56s-1.33-.61-1.33-1.5c0-.94.59-1.56,1.38-1.56s1.33.62,1.33,1.5ZM55.49,177.64c0,.63.34,1.2.95,1.2s.95-.56.95-1.23c0-.59-.31-1.21-.95-1.21s-.95.59-.95,1.24Z"/>
              <path class="cls-1" d="M60.82,177.59c0,1.02-.62,1.56-1.38,1.56s-1.33-.61-1.33-1.5c0-.94.59-1.56,1.38-1.56s1.33.62,1.33,1.5ZM58.52,177.64c0,.63.34,1.2.95,1.2s.95-.56.95-1.23c0-.59-.31-1.21-.95-1.21s-.95.59-.95,1.24Z"/>
              <path class="cls-1" d="M63.81,177.81c-.02-.41-.05-.91-.04-1.28h-.01c-.1.35-.22.72-.37,1.13l-.52,1.44h-.29l-.48-1.41c-.14-.42-.26-.8-.34-1.15h0c0,.37-.03.87-.06,1.31l-.08,1.27h-.37l.21-2.97h.49l.51,1.43c.12.36.22.69.3,1h.01c.07-.3.18-.62.31-1l.53-1.43h.49l.18,2.97h-.37l-.07-1.3Z"/>
              <path class="cls-1" d="M67.55,177.65c0,.97-.36,1.51-.99,1.51-.56,0-.94-.52-.95-1.47,0-.96.41-1.49.99-1.49s.95.54.95,1.45ZM65.99,177.69c0,.74.23,1.17.58,1.17.4,0,.58-.46.58-1.19s-.18-1.17-.58-1.17c-.34,0-.58.41-.58,1.19Z"/>
              <path class="cls-1" d="M68.74,176.61h0l-.5.27-.07-.29.62-.33h.33v2.86h-.37v-2.5Z"/>
            </g>
            <g>
              <path class="cls-1" d="M74.4,72.97c.17-.04.43-.06.7-.06.38,0,.63.07.81.22.15.11.25.29.25.52,0,.29-.19.54-.5.65h0c.28.08.61.31.61.75,0,.26-.1.45-.25.59-.21.19-.54.28-1.03.28-.26,0-.47-.02-.59-.04v-2.92ZM74.79,74.19h.35c.4,0,.64-.21.64-.5,0-.35-.26-.48-.65-.48-.18,0-.28.01-.34.03v.95ZM74.79,75.61c.07.01.18.02.32.02.4,0,.76-.15.76-.58,0-.4-.35-.57-.77-.57h-.32v1.13Z"/>
              <path class="cls-1" d="M78.32,74.51h-1.15v1.07h1.28v.32h-1.67v-2.97h1.6v.32h-1.22v.94h1.15v.32Z"/>
              <path class="cls-1" d="M78.95,72.97c.23-.04.51-.06.81-.06.55,0,.94.13,1.2.37.26.24.42.58.42,1.06s-.15.88-.43,1.15c-.28.28-.73.43-1.31.43-.27,0-.5-.01-.7-.04v-2.92ZM79.33,75.6c.1.02.24.02.39.02.82,0,1.26-.46,1.26-1.26,0-.7-.39-1.14-1.2-1.14-.2,0-.35.02-.45.04v2.34Z"/>
              <path class="cls-1" d="M81.87,72.97c.19-.04.47-.06.73-.06.41,0,.67.07.86.24.15.13.23.33.23.56,0,.39-.25.65-.56.76h0c.23.09.37.3.44.61.1.41.17.7.23.81h-.4c-.05-.08-.11-.34-.2-.71-.09-.41-.25-.56-.59-.58h-.36v1.28h-.38v-2.93ZM82.26,74.32h.39c.41,0,.67-.22.67-.56,0-.38-.28-.55-.68-.55-.18,0-.32.02-.38.03v1.08Z"/>
              <path class="cls-1" d="M86.79,74.39c0,1.02-.62,1.56-1.38,1.56s-1.33-.61-1.33-1.5c0-.94.59-1.56,1.38-1.56s1.33.62,1.33,1.5ZM84.49,74.43c0,.63.34,1.2.95,1.2s.95-.56.95-1.23c0-.59-.31-1.21-.95-1.21s-.95.59-.95,1.24Z"/>
              <path class="cls-1" d="M89.81,74.39c0,1.02-.62,1.56-1.38,1.56s-1.33-.61-1.33-1.5c0-.94.59-1.56,1.38-1.56s1.33.62,1.33,1.5ZM87.51,74.43c0,.63.34,1.2.95,1.2s.95-.56.95-1.23c0-.59-.31-1.21-.95-1.21s-.95.59-.95,1.24Z"/>
              <path class="cls-1" d="M92.81,74.6c-.02-.41-.05-.91-.04-1.28h-.01c-.1.35-.22.72-.37,1.13l-.52,1.44h-.29l-.48-1.41c-.14-.42-.26-.8-.34-1.15h0c0,.37-.03.87-.06,1.31l-.08,1.27h-.37l.21-2.97h.49l.51,1.43c.12.36.22.69.3,1h.01c.07-.3.18-.62.31-1l.53-1.43h.49l.18,2.97h-.37l-.07-1.3Z"/>
              <path class="cls-1" d="M96.54,74.44c0,.97-.36,1.51-.99,1.51-.56,0-.94-.52-.95-1.47,0-.96.41-1.49.99-1.49s.95.54.95,1.45ZM94.99,74.48c0,.74.23,1.17.58,1.17.4,0,.58-.46.58-1.19s-.18-1.17-.58-1.17c-.34,0-.58.41-.58,1.19Z"/>
              <path class="cls-1" d="M96.89,75.9v-.24l.3-.29c.73-.69,1.06-1.06,1.06-1.5,0-.29-.14-.56-.57-.56-.26,0-.48.13-.61.24l-.12-.27c.2-.17.48-.29.81-.29.62,0,.88.42.88.83,0,.53-.38.95-.99,1.54l-.23.21h0s1.28,0,1.28,0v.32h-1.83Z"/>
            </g>
            <g>
              <path class="cls-1" d="M164.18,151.2h.38v2.64h1.27v.32h-1.65v-2.97Z"/>
              <path class="cls-1" d="M166.64,151.2v2.97h-.38v-2.97h.38Z"/>
              <path class="cls-1" d="M167.96,154.17l-.97-2.97h.41l.46,1.46c.13.4.24.76.32,1.11h0c.08-.34.21-.72.34-1.1l.5-1.47h.41l-1.06,2.97h-.42Z"/>
              <path class="cls-1" d="M170.14,151.2v2.97h-.38v-2.97h.38Z"/>
              <path class="cls-1" d="M170.81,154.17v-2.97h.42l.95,1.5c.22.35.39.66.53.96h0c-.04-.4-.04-.76-.04-1.22v-1.24h.36v2.97h-.39l-.94-1.5c-.21-.33-.4-.67-.55-.99h-.01c.02.38.03.73.03,1.23v1.27h-.36Z"/>
              <path class="cls-1" d="M175.96,154.04c-.17.06-.51.16-.91.16-.45,0-.82-.11-1.11-.39-.26-.25-.41-.64-.41-1.1,0-.88.61-1.53,1.61-1.53.34,0,.61.07.74.14l-.09.31c-.16-.07-.36-.13-.66-.13-.72,0-1.19.45-1.19,1.19s.45,1.2,1.14,1.2c.25,0,.42-.04.51-.08v-.88h-.6v-.31h.98v1.43Z"/>
              <path class="cls-1" d="M177.48,151.24c.19-.04.47-.06.73-.06.41,0,.67.07.86.24.15.13.23.33.23.56,0,.39-.25.65-.56.76h0c.23.09.37.3.44.61.1.41.17.7.23.81h-.4c-.05-.08-.11-.34-.2-.71-.09-.41-.25-.56-.59-.58h-.36v1.28h-.38v-2.93ZM177.86,152.59h.39c.41,0,.67-.22.67-.56,0-.38-.28-.55-.68-.55-.18,0-.32.02-.38.03v1.08Z"/>
              <path class="cls-1" d="M182.39,152.65c0,1.02-.62,1.56-1.38,1.56s-1.33-.61-1.33-1.5c0-.94.59-1.56,1.38-1.56s1.33.62,1.33,1.5ZM180.09,152.7c0,.63.34,1.2.95,1.2s.95-.56.95-1.23c0-.59-.31-1.21-.95-1.21s-.95.59-.95,1.24Z"/>
              <path class="cls-1" d="M185.42,152.65c0,1.02-.62,1.56-1.38,1.56s-1.33-.61-1.33-1.5c0-.94.59-1.56,1.38-1.56s1.33.62,1.33,1.5ZM183.11,152.7c0,.63.34,1.2.95,1.2s.95-.56.95-1.23c0-.59-.31-1.21-.95-1.21s-.95.59-.95,1.24Z"/>
              <path class="cls-1" d="M188.41,152.87c-.02-.41-.05-.91-.04-1.28h-.01c-.1.35-.22.72-.37,1.13l-.52,1.44h-.29l-.48-1.41c-.14-.42-.26-.8-.34-1.15h0c0,.37-.03.87-.06,1.31l-.08,1.27h-.37l.21-2.97h.49l.51,1.43c.12.36.22.69.3,1h.01c.07-.3.18-.62.31-1l.53-1.43h.49l.18,2.97h-.37l-.07-1.3Z"/>
            </g>
            <g>
              <path class="cls-1" d="M184.16,58.69h.38v1.43h.01c.08-.11.16-.22.23-.32l.91-1.11h.47l-1.07,1.26,1.16,1.71h-.45l-.98-1.46-.28.33v1.13h-.38v-2.97Z"/>
              <path class="cls-1" d="M186.92,58.69v2.97h-.38v-2.97h.38Z"/>
              <path class="cls-1" d="M188.15,59.01h-.9v-.33h2.2v.33h-.91v2.64h-.39v-2.64Z"/>
              <path class="cls-1" d="M191.73,61.56c-.14.07-.42.14-.78.14-.84,0-1.47-.53-1.47-1.5s.63-1.56,1.55-1.56c.37,0,.6.08.7.13l-.09.31c-.14-.07-.35-.12-.6-.12-.69,0-1.16.44-1.16,1.22,0,.73.42,1.19,1.14,1.19.23,0,.47-.05.62-.12l.08.3Z"/>
              <path class="cls-1" d="M192.59,58.69v1.24h1.43v-1.24h.39v2.97h-.39v-1.39h-1.43v1.39h-.38v-2.97h.38Z"/>
              <path class="cls-1" d="M196.61,60.26h-1.15v1.07h1.28v.32h-1.67v-2.97h1.6v.32h-1.22v.94h1.15v.32Z"/>
              <path class="cls-1" d="M197.23,61.65v-2.97h.42l.95,1.5c.22.35.39.66.53.96h0c-.04-.4-.04-.76-.04-1.22v-1.24h.36v2.97h-.39l-.94-1.5c-.21-.33-.4-.67-.55-.99h-.01c.02.38.03.73.03,1.23v1.27h-.36Z"/>
            </g>
            <g>
              <path class="cls-1" d="M24.35,123.91c.17-.04.43-.06.7-.06.38,0,.63.07.81.22.15.11.25.29.25.52,0,.29-.19.54-.5.65h0c.28.08.61.31.61.75,0,.26-.1.45-.25.59-.21.19-.54.28-1.03.28-.26,0-.47-.02-.59-.04v-2.92ZM24.73,125.12h.35c.4,0,.64-.21.64-.5,0-.35-.26-.48-.65-.48-.18,0-.28.01-.34.03v.95ZM24.73,126.54c.07.01.18.02.32.02.4,0,.76-.15.76-.58,0-.4-.35-.57-.77-.57h-.32v1.13Z"/>
              <path class="cls-1" d="M27.21,125.9l-.31.93h-.4l1.01-2.97h.46l1.01,2.97h-.41l-.32-.93h-1.05ZM28.18,125.6l-.29-.85c-.07-.19-.11-.37-.15-.54h0c-.04.18-.09.36-.15.54l-.29.86h.89Z"/>
              <path class="cls-1" d="M29.64,124.2h-.9v-.33h2.2v.33h-.91v2.64h-.39v-2.64Z"/>
              <path class="cls-1" d="M31.65,123.87v1.24h1.43v-1.24h.39v2.97h-.39v-1.39h-1.43v1.39h-.38v-2.97h.38Z"/>
              <path class="cls-1" d="M34.13,123.91c.19-.04.47-.06.73-.06.41,0,.67.08.86.24.15.13.23.33.23.56,0,.39-.25.65-.56.76h0c.23.09.37.3.44.61.1.41.17.7.23.81h-.4c-.05-.08-.11-.34-.2-.71-.09-.41-.25-.56-.59-.58h-.36v1.28h-.38v-2.93ZM34.51,125.26h.39c.41,0,.67-.22.67-.56,0-.38-.28-.55-.68-.55-.18,0-.32.02-.38.03v1.08Z"/>
              <path class="cls-1" d="M39.04,125.32c0,1.02-.62,1.56-1.38,1.56s-1.33-.61-1.33-1.5c0-.94.59-1.56,1.38-1.56s1.33.62,1.33,1.5ZM36.74,125.37c0,.63.34,1.2.95,1.2s.95-.56.95-1.23c0-.59-.31-1.21-.95-1.21s-.95.59-.95,1.24Z"/>
              <path class="cls-1" d="M42.07,125.32c0,1.02-.62,1.56-1.38,1.56s-1.33-.61-1.33-1.5c0-.94.59-1.56,1.38-1.56s1.33.62,1.33,1.5ZM39.77,125.37c0,.63.34,1.2.95,1.2s.95-.56.95-1.23c0-.59-.31-1.21-.95-1.21s-.95.59-.95,1.24Z"/>
              <path class="cls-1" d="M45.06,125.53c-.02-.41-.05-.91-.04-1.28h-.01c-.1.35-.22.72-.37,1.13l-.52,1.44h-.29l-.48-1.41c-.14-.42-.26-.8-.34-1.15h0c0,.37-.03.87-.06,1.31l-.08,1.27h-.37l.21-2.97h.49l.51,1.43c.12.36.22.69.3,1h.01c.07-.3.18-.62.31-1l.53-1.43h.49l.18,2.97h-.37l-.07-1.3Z"/>
            </g>
            <g>
              <path class="cls-1" d="M56.89,215.17l-.38-.66c-.15-.25-.25-.41-.34-.58h0c-.08.17-.17.33-.32.59l-.36.65h-.44l.91-1.5-.87-1.47h.44l.39.7c.11.19.19.34.27.5h.01c.08-.18.16-.31.27-.5l.4-.7h.44l-.9,1.44.92,1.52h-.44Z"/>
              <path class="cls-1" d="M59.33,215.17l-.38-.66c-.15-.25-.25-.41-.34-.58h0c-.08.17-.17.33-.32.59l-.36.65h-.44l.91-1.5-.87-1.47h.44l.39.7c.11.19.19.34.27.5h.01c.08-.18.16-.31.27-.5l.4-.7h.44l-.9,1.44.92,1.52h-.44Z"/>
            </g>
            <g>
              <path class="cls-1" d="M173.2,215.17l-.38-.66c-.15-.25-.25-.41-.34-.58h0c-.08.17-.17.33-.32.59l-.36.65h-.44l.91-1.5-.87-1.47h.44l.39.7c.11.19.19.34.27.5h.01c.08-.18.16-.31.27-.5l.4-.7h.44l-.9,1.44.92,1.52h-.44Z"/>
              <path class="cls-1" d="M175.64,215.17l-.38-.66c-.15-.25-.25-.41-.34-.58h0c-.08.17-.17.33-.32.59l-.36.65h-.44l.91-1.5-.87-1.47h.44l.39.7c.11.19.19.34.27.5h.01c.08-.18.16-.31.27-.5l.4-.7h.44l-.9,1.44.92,1.52h-.44Z"/>
            </g>
            <g>
              <path class="cls-1" d="M192.86,3.11l-.38-.66c-.15-.25-.25-.41-.34-.58h0c-.08.17-.17.33-.32.59l-.36.65h-.44l.91-1.5-.87-1.47h.44l.39.7c.11.19.19.34.27.5h.01c.08-.18.16-.31.27-.5l.4-.7h.44l-.9,1.44.92,1.52h-.44Z"/>
              <path class="cls-1" d="M195.3,3.11l-.38-.66c-.15-.25-.25-.41-.34-.58h0c-.08.17-.17.33-.32.59l-.36.65h-.44l.91-1.5-.87-1.47h.44l.39.7c.11.19.19.34.27.5h.01c.08-.18.16-.31.27-.5l.4-.7h.44l-.9,1.44.92,1.52h-.44Z"/>
            </g>
            <g>
              <path class="cls-1" d="M87.48,3.11l-.38-.66c-.15-.25-.25-.41-.34-.58h0c-.08.17-.17.33-.32.59l-.36.65h-.44l.91-1.5-.87-1.47h.44l.39.7c.11.19.19.34.27.5h.01c.08-.18.16-.31.27-.5l.4-.7h.44l-.9,1.44.92,1.52h-.44Z"/>
              <path class="cls-1" d="M89.93,3.11l-.38-.66c-.15-.25-.25-.41-.34-.58h0c-.08.17-.17.33-.32.59l-.36.65h-.44l.91-1.5-.87-1.47h.44l.39.7c.11.19.19.34.27.5h.01c.08-.18.16-.31.27-.5l.4-.7h.44l-.9,1.44.92,1.52h-.44Z"/>
            </g>
            <g>
              <path class="cls-1" d="M275.5,152.21l-.66.38c-.25.15-.41.25-.58.34h0c.17.09.33.18.59.33l.65.36v.44l-1.5-.91-1.47.87v-.44l.7-.39c.19-.11.34-.19.5-.27h0c-.18-.1-.31-.17-.5-.28l-.7-.4v-.44l1.44.9,1.52-.92v.44Z"/>
              <path class="cls-1" d="M275.5,149.76l-.66.38c-.25.15-.41.25-.58.34h0c.17.09.33.18.59.33l.65.36v.44l-1.5-.91-1.47.87v-.44l.7-.39c.19-.11.34-.19.5-.27h0c-.18-.1-.31-.17-.5-.28l-.7-.4v-.44l1.44.9,1.52-.92v.44Z"/>
            </g>
            <g>
              <path class="cls-1" d="M275.5,62.22l-.66.38c-.25.15-.41.25-.58.34h0c.17.09.33.18.59.33l.65.36v.44l-1.5-.91-1.47.87v-.44l.7-.39c.19-.11.34-.19.5-.27h0c-.18-.1-.31-.17-.5-.28l-.7-.4v-.44l1.44.9,1.52-.92v.44Z"/>
              <path class="cls-1" d="M275.5,59.77l-.66.38c-.25.15-.41.25-.58.34h0c.17.09.33.18.59.33l.65.36v.44l-1.5-.91-1.47.87v-.44l.7-.39c.19-.11.34-.19.5-.27h0c-.18-.1-.31-.17-.5-.28l-.7-.4v-.44l1.44.9,1.52-.92v.44Z"/>
            </g>
            <g>
              <path class="cls-1" d="M3.01,75.9l-.66.38c-.25.15-.41.25-.58.34h0c.17.09.33.18.59.33l.65.36v.44l-1.5-.91-1.47.87v-.44l.7-.39c.19-.11.34-.19.5-.27h0c-.18-.1-.31-.17-.5-.28l-.7-.4v-.44l1.44.9,1.52-.92v.44Z"/>
              <path class="cls-1" d="M3.01,73.46l-.66.38c-.25.15-.41.25-.58.34h0c.17.09.33.18.59.33l.65.36v.44l-1.5-.91-1.47.87v-.44l.7-.39c.19-.11.34-.19.5-.27h0c-.18-.1-.31-.17-.5-.28l-.7-.4v-.44l1.44.9,1.52-.92v.44Z"/>
            </g>
            <g>
              <path class="cls-1" d="M3.01,128.06l-.66.38c-.25.15-.41.25-.58.34h0c.17.09.33.18.59.33l.65.36v.44l-1.5-.91-1.47.87v-.44l.7-.39c.19-.11.34-.19.5-.27h0c-.18-.1-.31-.17-.5-.28l-.7-.4v-.44l1.44.9,1.52-.92v.44Z"/>
              <path class="cls-1" d="M3.01,125.62l-.66.38c-.25.15-.41.25-.58.34h0c.17.09.33.18.59.33l.65.36v.44l-1.5-.91-1.47.87v-.44l.7-.39c.19-.11.34-.19.5-.27h0c-.18-.1-.31-.17-.5-.28l-.7-.4v-.44l1.44.9,1.52-.92v.44Z"/>
            </g>
            <g>
              <path class="cls-1" d="M3.01,177.39l-.66.38c-.25.15-.41.25-.58.34h0c.17.09.33.18.59.33l.65.36v.44l-1.5-.91-1.47.87v-.44l.7-.39c.19-.11.34-.19.5-.27h0c-.18-.1-.31-.17-.5-.28l-.7-.4v-.44l1.44.9,1.52-.92v.44Z"/>
              <path class="cls-1" d="M3.01,174.95l-.66.38c-.25.15-.41.25-.58.34h0c.17.09.33.18.59.33l.65.36v.44l-1.5-.91-1.47.87v-.44l.7-.39c.19-.11.34-.19.5-.27h0c-.18-.1-.31-.17-.5-.28l-.7-.4v-.44l1.44.9,1.52-.92v.44Z"/>
            </g>
          </g>
        </g>
      </g>
    </g>
  </g>
</svg>