<?xml version="1.0" encoding="UTF-8"?>
<svg xmlns="http://www.w3.org/2000/svg" viewBox="0 0 543.86 543.86">
  <defs>
    <style>
      .cls-1 {
        isolation: isolate;
      }

      .cls-2, .cls-3 {
        mix-blend-mode: hard-light;
      }

      .cls-3 {
        fill: #a6bce7;
      }
    </style>
  </defs>
  <g class="cls-1">
    <g id="Layer_2" data-name="Layer 2">
      <g id="PRINT">
        <g class="cls-2">
          <path class="cls-3" d="M258.2,0L0,285.65l285.65,258.2,258.2-285.65L258.2,0ZM292.58,535.71l-6.95,7.69-7.69-6.95,6.95-7.69,7.69,6.95ZM299.75,527.79l-6.95,7.69-7.69-6.95,6.95-7.69,7.69,6.95ZM306.91,519.86l-6.95,7.69-7.69-6.95,6.95-7.69,7.69,6.95ZM314.08,511.93l-6.95,7.69-7.69-6.95,6.95-7.69,7.69,6.95ZM321.25,504l-6.95,7.69-7.69-6.95,6.95-7.69,7.69,6.95ZM328.41,496.07l-6.95,7.69-7.69-6.95,6.95-7.69,7.69,6.95ZM335.58,488.14l-6.95,7.69-7.69-6.95,6.95-7.69,7.69,6.95ZM342.75,480.22l-6.95,7.69-7.69-6.95,6.95-7.69,7.69,6.95ZM349.91,472.29l-6.95,7.69-7.69-6.95,6.95-7.69,7.69,6.95ZM357.08,464.36l-6.95,7.69-7.69-6.95,6.95-7.69,7.69,6.95ZM364.24,456.43l-6.95,7.69-7.69-6.95,6.95-7.69,7.69,6.95ZM371.41,448.5l-6.95,7.69-7.69-6.95,6.95-7.69,7.69,6.95ZM378.58,440.58l-6.95,7.69-7.69-6.95,6.95-7.69,7.69,6.95ZM385.74,432.65l-6.95,7.69-7.69-6.95,6.95-7.69,7.69,6.95ZM392.91,424.72l-6.95,7.69-7.69-6.95,6.95-7.69,7.69,6.95ZM400.08,416.79l-6.95,7.69-7.69-6.95,6.95-7.69,7.69,6.95ZM407.24,408.86l-6.95,7.69-7.69-6.95,6.95-7.69,7.69,6.95ZM414.41,400.93l-6.95,7.69-7.69-6.95,6.95-7.69,7.69,6.95ZM421.58,393.01l-6.95,7.69-7.69-6.95,6.95-7.69,7.69,6.95ZM428.74,385.08l-6.95,7.69-7.69-6.95,6.95-7.69,7.69,6.95ZM435.91,377.15l-6.95,7.69-7.69-6.95,6.95-7.69,7.69,6.95ZM443.07,369.22l-6.95,7.69-7.69-6.95,6.95-7.69,7.69,6.95ZM450.24,361.29l-6.95,7.69-7.69-6.95,6.95-7.69,7.69,6.95ZM457.41,353.37l-6.95,7.69-7.69-6.95,6.95-7.69,7.69,6.95ZM464.57,345.44l-6.95,7.69-7.69-6.95,6.95-7.69,7.69,6.95ZM471.74,337.51l-6.95,7.69-7.69-6.95,6.95-7.69,7.69,6.95ZM478.91,329.58l-6.95,7.69-7.69-6.95,6.95-7.69,7.69,6.95ZM486.07,321.65l-6.95,7.69-7.69-6.95,6.95-7.69,7.69,6.95ZM493.24,313.72l-6.95,7.69-7.69-6.95,6.95-7.69,7.69,6.95ZM500.41,305.8l-6.95,7.69-7.69-6.95,6.95-7.69,7.69,6.95ZM507.57,297.87l-6.95,7.69-7.69-6.95,6.95-7.69,7.69,6.95ZM514.74,289.94l-6.95,7.69-7.69-6.95,6.95-7.69,7.69,6.95ZM521.9,282.01l-6.95,7.69-7.69-6.95,6.95-7.69,7.69,6.95ZM529.07,274.08l-6.95,7.69-7.69-6.95,6.95-7.69,7.69,6.95ZM536.24,266.16l-6.95,7.69-7.69-6.95,6.95-7.69,7.69,6.95ZM528.76,258.97l6.95-7.69,7.69,6.95-6.95,7.69-7.69-6.95ZM284.65,528.55l-6.95,7.69-7.69-6.95,6.95-7.69,7.69,6.95ZM291.82,520.62l-6.95,7.69-7.69-6.95,6.95-7.69,7.69,6.95ZM298.99,512.69l-6.95,7.69-7.69-6.95,6.95-7.69,7.69,6.95ZM306.15,504.76l-6.95,7.69-7.69-6.95,6.95-7.69,7.69,6.95ZM313.32,496.83l-6.95,7.69-7.69-6.95,6.95-7.69,7.69,6.95ZM320.48,488.91l-6.95,7.69-7.69-6.95,6.95-7.69,7.69,6.95ZM327.65,480.98l-6.95,7.69-7.69-6.95,6.95-7.69,7.69,6.95ZM334.82,473.05l-6.95,7.69-7.69-6.95,6.95-7.69,7.69,6.95ZM341.98,465.12l-6.95,7.69-7.69-6.95,6.95-7.69,7.69,6.95ZM349.15,457.19l-6.95,7.69-7.69-6.95,6.95-7.69,7.69,6.95ZM356.32,449.27l-6.95,7.69-7.69-6.95,6.95-7.69,7.69,6.95ZM363.48,441.34l-6.95,7.69-7.69-6.95,6.95-7.69,7.69,6.95ZM370.65,433.41l-6.95,7.69-7.69-6.95,6.95-7.69,7.69,6.95ZM377.82,425.48l-6.95,7.69-7.69-6.95,6.95-7.69,7.69,6.95ZM384.98,417.55l-6.95,7.69-7.69-6.95,6.95-7.69,7.69,6.95ZM392.15,409.62l-6.95,7.69-7.69-6.95,6.95-7.69,7.69,6.95ZM399.31,401.7l-6.95,7.69-7.69-6.95,6.95-7.69,7.69,6.95ZM406.48,393.77l-6.95,7.69-7.69-6.95,6.95-7.69,7.69,6.95ZM413.65,385.84l-6.95,7.69-7.69-6.95,6.95-7.69,7.69,6.95ZM420.81,377.91l-6.95,7.69-7.69-6.95,6.95-7.69,7.69,6.95ZM427.98,369.98l-6.95,7.69-7.69-6.95,6.95-7.69,7.69,6.95ZM435.15,362.06l-6.95,7.69-7.69-6.95,6.95-7.69,7.69,6.95ZM442.31,354.13l-6.95,7.69-7.69-6.95,6.95-7.69,7.69,6.95ZM449.48,346.2l-6.95,7.69-7.69-6.95,6.95-7.69,7.69,6.95ZM456.65,338.27l-6.95,7.69-7.69-6.95,6.95-7.69,7.69,6.95ZM463.81,330.34l-6.95,7.69-7.69-6.95,6.95-7.69,7.69,6.95ZM470.98,322.42l-6.95,7.69-7.69-6.95,6.95-7.69,7.69,6.95ZM478.14,314.49l-6.95,7.69-7.69-6.95,6.95-7.69,7.69,6.95ZM485.31,306.56l-6.95,7.69-7.69-6.95,6.95-7.69,7.69,6.95ZM492.48,298.63l-6.95,7.69-7.69-6.95,6.95-7.69,7.69,6.95ZM499.64,290.7l-6.95,7.69-7.69-6.95,6.95-7.69,7.69,6.95ZM506.81,282.77l-6.95,7.69-7.69-6.95,6.95-7.69,7.69,6.95ZM513.98,274.85l-6.95,7.69-7.69-6.95,6.95-7.69,7.69,6.95ZM521.14,266.92l-6.95,7.69-7.69-6.95,6.95-7.69,7.69,6.95ZM528.31,258.99l-6.95,7.69-7.69-6.95,6.95-7.69,7.69,6.95ZM520.83,251.8l6.95-7.69,7.69,6.95-6.95,7.69-7.69-6.95ZM276.72,521.38l-6.95,7.69-7.69-6.95,6.95-7.69,7.69,6.95ZM283.89,513.45l-6.95,7.69-7.69-6.95,6.95-7.69,7.69,6.95ZM291.06,505.52l-6.95,7.69-7.69-6.95,6.95-7.69,7.69,6.95ZM298.22,497.6l-6.95,7.69-7.69-6.95,6.95-7.69,7.69,6.95ZM305.39,489.67l-6.95,7.69-7.69-6.95,6.95-7.69,7.69,6.95ZM312.56,481.74l-6.95,7.69-7.69-6.95,6.95-7.69,7.69,6.95ZM319.72,473.81l-6.95,7.69-7.69-6.95,6.95-7.69,7.69,6.95ZM326.89,465.88l-6.95,7.69-7.69-6.95,6.95-7.69,7.69,6.95ZM334.06,457.96l-6.95,7.69-7.69-6.95,6.95-7.69,7.69,6.95ZM341.22,450.03l-6.95,7.69-7.69-6.95,6.95-7.69,7.69,6.95ZM348.39,442.1l-6.95,7.69-7.69-6.95,6.95-7.69,7.69,6.95ZM355.55,434.17l-6.95,7.69-7.69-6.95,6.95-7.69,7.69,6.95ZM362.72,426.24l-6.95,7.69-7.69-6.95,6.95-7.69,7.69,6.95ZM369.89,418.31l-6.95,7.69-7.69-6.95,6.95-7.69,7.69,6.95ZM377.05,410.39l-6.95,7.69-7.69-6.95,6.95-7.69,7.69,6.95ZM384.22,402.46l-6.95,7.69-7.69-6.95,6.95-7.69,7.69,6.95ZM391.39,394.53l-6.95,7.69-7.69-6.95,6.95-7.69,7.69,6.95ZM398.55,386.6l-6.95,7.69-7.69-6.95,6.95-7.69,7.69,6.95ZM405.72,378.67l-6.95,7.69-7.69-6.95,6.95-7.69,7.69,6.95ZM412.89,370.75l-6.95,7.69-7.69-6.95,6.95-7.69,7.69,6.95ZM420.05,362.82l-6.95,7.69-7.69-6.95,6.95-7.69,7.69,6.95ZM427.22,354.89l-6.95,7.69-7.69-6.95,6.95-7.69,7.69,6.95ZM434.38,346.96l-6.95,7.69-7.69-6.95,6.95-7.69,7.69,6.95ZM441.55,339.03l-6.95,7.69-7.69-6.95,6.95-7.69,7.69,6.95ZM448.72,331.1l-6.95,7.69-7.69-6.95,6.95-7.69,7.69,6.95ZM455.88,323.18l-6.95,7.69-7.69-6.95,6.95-7.69,7.69,6.95ZM463.05,315.25l-6.95,7.69-7.69-6.95,6.95-7.69,7.69,6.95ZM470.22,307.32l-6.95,7.69-7.69-6.95,6.95-7.69,7.69,6.95ZM477.38,299.39l-6.95,7.69-7.69-6.95,6.95-7.69,7.69,6.95ZM484.55,291.46l-6.95,7.69-7.69-6.95,6.95-7.69,7.69,6.95ZM491.72,283.54l-6.95,7.69-7.69-6.95,6.95-7.69,7.69,6.95ZM498.88,275.61l-6.95,7.69-7.69-6.95,6.95-7.69,7.69,6.95ZM506.05,267.68l-6.95,7.69-7.69-6.95,6.95-7.69,7.69,6.95ZM513.21,259.75l-6.95,7.69-7.69-6.95,6.95-7.69,7.69,6.95ZM520.38,251.82l-6.95,7.69-7.69-6.95,6.95-7.69,7.69,6.95ZM512.91,244.63l6.95-7.69,7.69,6.95-6.95,7.69-7.69-6.95ZM268.8,514.21l-6.95,7.69-7.69-6.95,6.95-7.69,7.69,6.95ZM275.96,506.29l-6.95,7.69-7.69-6.95,6.95-7.69,7.69,6.95ZM283.13,498.36l-6.95,7.69-7.69-6.95,6.95-7.69,7.69,6.95ZM290.3,490.43l-6.95,7.69-7.69-6.95,6.95-7.69,7.69,6.95ZM297.46,482.5l-6.95,7.69-7.69-6.95,6.95-7.69,7.69,6.95ZM304.63,474.57l-6.95,7.69-7.69-6.95,6.95-7.69,7.69,6.95ZM311.79,466.64l-6.95,7.69-7.69-6.95,6.95-7.69,7.69,6.95ZM318.96,458.72l-6.95,7.69-7.69-6.95,6.95-7.69,7.69,6.95ZM326.13,450.79l-6.95,7.69-7.69-6.95,6.95-7.69,7.69,6.95ZM333.29,442.86l-6.95,7.69-7.69-6.95,6.95-7.69,7.69,6.95ZM340.46,434.93l-6.95,7.69-7.69-6.95,6.95-7.69,7.69,6.95ZM347.63,427l-6.95,7.69-7.69-6.95,6.95-7.69,7.69,6.95ZM354.79,419.08l-6.95,7.69-7.69-6.95,6.95-7.69,7.69,6.95ZM361.96,411.15l-6.95,7.69-7.69-6.95,6.95-7.69,7.69,6.95ZM369.13,403.22l-6.95,7.69-7.69-6.95,6.95-7.69,7.69,6.95ZM376.29,395.29l-6.95,7.69-7.69-6.95,6.95-7.69,7.69,6.95ZM383.46,387.36l-6.95,7.69-7.69-6.95,6.95-7.69,7.69,6.95ZM390.62,379.44l-6.95,7.69-7.69-6.95,6.95-7.69,7.69,6.95ZM397.79,371.51l-6.95,7.69-7.69-6.95,6.95-7.69,7.69,6.95ZM404.96,363.58l-6.95,7.69-7.69-6.95,6.95-7.69,7.69,6.95ZM412.12,355.65l-6.95,7.69-7.69-6.95,6.95-7.69,7.69,6.95ZM419.29,347.72l-6.95,7.69-7.69-6.95,6.95-7.69,7.69,6.95ZM426.46,339.79l-6.95,7.69-7.69-6.95,6.95-7.69,7.69,6.95ZM433.62,331.87l-6.95,7.69-7.69-6.95,6.95-7.69,7.69,6.95ZM440.79,323.94l-6.95,7.69-7.69-6.95,6.95-7.69,7.69,6.95ZM447.96,316.01l-6.95,7.69-7.69-6.95,6.95-7.69,7.69,6.95ZM455.12,308.08l-6.95,7.69-7.69-6.95,6.95-7.69,7.69,6.95ZM462.29,300.15l-6.95,7.69-7.69-6.95,6.95-7.69,7.69,6.95ZM469.45,292.23l-6.95,7.69-7.69-6.95,6.95-7.69,7.69,6.95ZM476.62,284.3l-6.95,7.69-7.69-6.95,6.95-7.69,7.69,6.95ZM483.79,276.37l-6.95,7.69-7.69-6.95,6.95-7.69,7.69,6.95ZM490.95,268.44l-6.95,7.69-7.69-6.95,6.95-7.69,7.69,6.95ZM498.12,260.51l-6.95,7.69-7.69-6.95,6.95-7.69,7.69,6.95ZM505.29,252.59l-6.95,7.69-7.69-6.95,6.95-7.69,7.69,6.95ZM512.45,244.66l-6.95,7.69-7.69-6.95,6.95-7.69,7.69,6.95ZM504.98,237.47l6.95-7.69,7.69,6.95-6.95,7.69-7.69-6.95ZM260.87,507.05l-6.95,7.69-7.69-6.95,6.95-7.69,7.69,6.95ZM268.03,499.12l-6.95,7.69-7.69-6.95,6.95-7.69,7.69,6.95ZM275.2,491.19l-6.95,7.69-7.69-6.95,6.95-7.69,7.69,6.95ZM282.37,483.26l-6.95,7.69-7.69-6.95,6.95-7.69,7.69,6.95ZM289.53,475.33l-6.95,7.69-7.69-6.95,6.95-7.69,7.69,6.95ZM296.7,467.41l-6.95,7.69-7.69-6.95,6.95-7.69,7.69,6.95ZM303.87,459.48l-6.95,7.69-7.69-6.95,6.95-7.69,7.69,6.95ZM311.03,451.55l-6.95,7.69-7.69-6.95,6.95-7.69,7.69,6.95ZM318.2,443.62l-6.95,7.69-7.69-6.95,6.95-7.69,7.69,6.95ZM325.37,435.69l-6.95,7.69-7.69-6.95,6.95-7.69,7.69,6.95ZM332.53,427.77l-6.95,7.69-7.69-6.95,6.95-7.69,7.69,6.95ZM339.7,419.84l-6.95,7.69-7.69-6.95,6.95-7.69,7.69,6.95ZM346.86,411.91l-6.95,7.69-7.69-6.95,6.95-7.69,7.69,6.95ZM354.03,403.98l-6.95,7.69-7.69-6.95,6.95-7.69,7.69,6.95ZM361.2,396.05l-6.95,7.69-7.69-6.95,6.95-7.69,7.69,6.95ZM368.36,388.13l-6.95,7.69-7.69-6.95,6.95-7.69,7.69,6.95ZM375.53,380.2l-6.95,7.69-7.69-6.95,6.95-7.69,7.69,6.95ZM382.7,372.27l-6.95,7.69-7.69-6.95,6.95-7.69,7.69,6.95ZM389.86,364.34l-6.95,7.69-7.69-6.95,6.95-7.69,7.69,6.95ZM397.03,356.41l-6.95,7.69-7.69-6.95,6.95-7.69,7.69,6.95ZM404.2,348.48l-6.95,7.69-7.69-6.95,6.95-7.69,7.69,6.95ZM411.36,340.56l-6.95,7.69-7.69-6.95,6.95-7.69,7.69,6.95ZM418.53,332.63l-6.95,7.69-7.69-6.95,6.95-7.69,7.69,6.95ZM425.69,324.7l-6.95,7.69-7.69-6.95,6.95-7.69,7.69,6.95ZM432.86,316.77l-6.95,7.69-7.69-6.95,6.95-7.69,7.69,6.95ZM440.03,308.84l-6.95,7.69-7.69-6.95,6.95-7.69,7.69,6.95ZM447.19,300.92l-6.95,7.69-7.69-6.95,6.95-7.69,7.69,6.95ZM454.36,292.99l-6.95,7.69-7.69-6.95,6.95-7.69,7.69,6.95ZM461.53,285.06l-6.95,7.69-7.69-6.95,6.95-7.69,7.69,6.95ZM468.69,277.13l-6.95,7.69-7.69-6.95,6.95-7.69,7.69,6.95ZM475.86,269.2l-6.95,7.69-7.69-6.95,6.95-7.69,7.69,6.95ZM483.03,261.27l-6.95,7.69-7.69-6.95,6.95-7.69,7.69,6.95ZM490.19,253.35l-6.95,7.69-7.69-6.95,6.95-7.69,7.69,6.95ZM497.36,245.42l-6.95,7.69-7.69-6.95,6.95-7.69,7.69,6.95ZM504.52,237.49l-6.95,7.69-7.69-6.95,6.95-7.69,7.69,6.95ZM497.05,230.3l6.95-7.69,7.69,6.95-6.95,7.69-7.69-6.95ZM252.94,499.88l-6.95,7.69-7.69-6.95,6.95-7.69,7.69,6.95ZM260.11,491.95l-6.95,7.69-7.69-6.95,6.95-7.69,7.69,6.95ZM267.27,484.02l-6.95,7.69-7.69-6.95,6.95-7.69,7.69,6.95ZM274.44,476.1l-6.95,7.69-7.69-6.95,6.95-7.69,7.69,6.95ZM281.61,468.17l-6.95,7.69-7.69-6.95,6.95-7.69,7.69,6.95ZM288.77,460.24l-6.95,7.69-7.69-6.95,6.95-7.69,7.69,6.95ZM295.94,452.31l-6.95,7.69-7.69-6.95,6.95-7.69,7.69,6.95ZM303.1,444.38l-6.95,7.69-7.69-6.95,6.95-7.69,7.69,6.95ZM310.27,436.46l-6.95,7.69-7.69-6.95,6.95-7.69,7.69,6.95ZM317.44,428.53l-6.95,7.69-7.69-6.95,6.95-7.69,7.69,6.95ZM324.6,420.6l-6.95,7.69-7.69-6.95,6.95-7.69,7.69,6.95ZM331.77,412.67l-6.95,7.69-7.69-6.95,6.95-7.69,7.69,6.95ZM338.94,404.74l-6.95,7.69-7.69-6.95,6.95-7.69,7.69,6.95ZM346.1,396.82l-6.95,7.69-7.69-6.95,6.95-7.69,7.69,6.95ZM353.27,388.89l-6.95,7.69-7.69-6.95,6.95-7.69,7.69,6.95ZM360.44,380.96l-6.95,7.69-7.69-6.95,6.95-7.69,7.69,6.95ZM367.6,373.03l-6.95,7.69-7.69-6.95,6.95-7.69,7.69,6.95ZM374.77,365.1l-6.95,7.69-7.69-6.95,6.95-7.69,7.69,6.95ZM381.93,357.17l-6.95,7.69-7.69-6.95,6.95-7.69,7.69,6.95ZM389.1,349.25l-6.95,7.69-7.69-6.95,6.95-7.69,7.69,6.95ZM396.27,341.32l-6.95,7.69-7.69-6.95,6.95-7.69,7.69,6.95ZM403.43,333.39l-6.95,7.69-7.69-6.95,6.95-7.69,7.69,6.95ZM410.6,325.46l-6.95,7.69-7.69-6.95,6.95-7.69,7.69,6.95ZM417.77,317.53l-6.95,7.69-7.69-6.95,6.95-7.69,7.69,6.95ZM424.93,309.61l-6.95,7.69-7.69-6.95,6.95-7.69,7.69,6.95ZM432.1,301.68l-6.95,7.69-7.69-6.95,6.95-7.69,7.69,6.95ZM439.27,293.75l-6.95,7.69-7.69-6.95,6.95-7.69,7.69,6.95ZM446.43,285.82l-6.95,7.69-7.69-6.95,6.95-7.69,7.69,6.95ZM453.6,277.89l-6.95,7.69-7.69-6.95,6.95-7.69,7.69,6.95ZM460.76,269.97l-6.95,7.69-7.69-6.95,6.95-7.69,7.69,6.95ZM467.93,262.04l-6.95,7.69-7.69-6.95,6.95-7.69,7.69,6.95ZM475.1,254.11l-6.95,7.69-7.69-6.95,6.95-7.69,7.69,6.95ZM482.26,246.18l-6.95,7.69-7.69-6.95,6.95-7.69,7.69,6.95ZM489.43,238.25l-6.95,7.69-7.69-6.95,6.95-7.69,7.69,6.95ZM496.6,230.32l-6.95,7.69-7.69-6.95,6.95-7.69,7.69,6.95ZM489.12,223.13l6.95-7.69,7.69,6.95-6.95,7.69-7.69-6.95ZM245.01,492.71l-6.95,7.69-7.69-6.95,6.95-7.69,7.69,6.95ZM252.18,484.79l-6.95,7.69-7.69-6.95,6.95-7.69,7.69,6.95ZM259.34,476.86l-6.95,7.69-7.69-6.95,6.95-7.69,7.69,6.95ZM266.51,468.93l-6.95,7.69-7.69-6.95,6.95-7.69,7.69,6.95ZM273.68,461l-6.95,7.69-7.69-6.95,6.95-7.69,7.69,6.95ZM280.84,453.07l-6.95,7.69-7.69-6.95,6.95-7.69,7.69,6.95ZM288.01,445.15l-6.95,7.69-7.69-6.95,6.95-7.69,7.69,6.95ZM295.18,437.22l-6.95,7.69-7.69-6.95,6.95-7.69,7.69,6.95ZM302.34,429.29l-6.95,7.69-7.69-6.95,6.95-7.69,7.69,6.95ZM309.51,421.36l-6.95,7.69-7.69-6.95,6.95-7.69,7.69,6.95ZM316.68,413.43l-6.95,7.69-7.69-6.95,6.95-7.69,7.69,6.95ZM323.84,405.5l-6.95,7.69-7.69-6.95,6.95-7.69,7.69,6.95ZM331.01,397.58l-6.95,7.69-7.69-6.95,6.95-7.69,7.69,6.95ZM338.17,389.65l-6.95,7.69-7.69-6.95,6.95-7.69,7.69,6.95ZM345.34,381.72l-6.95,7.69-7.69-6.95,6.95-7.69,7.69,6.95ZM352.51,373.79l-6.95,7.69-7.69-6.95,6.95-7.69,7.69,6.95ZM359.67,365.86l-6.95,7.69-7.69-6.95,6.95-7.69,7.69,6.95ZM366.84,357.94l-6.95,7.69-7.69-6.95,6.95-7.69,7.69,6.95ZM374.01,350.01l-6.95,7.69-7.69-6.95,6.95-7.69,7.69,6.95ZM381.17,342.08l-6.95,7.69-7.69-6.95,6.95-7.69,7.69,6.95ZM388.34,334.15l-6.95,7.69-7.69-6.95,6.95-7.69,7.69,6.95ZM395.51,326.22l-6.95,7.69-7.69-6.95,6.95-7.69,7.69,6.95ZM402.67,318.3l-6.95,7.69-7.69-6.95,6.95-7.69,7.69,6.95ZM409.84,310.37l-6.95,7.69-7.69-6.95,6.95-7.69,7.69,6.95ZM417,302.44l-6.95,7.69-7.69-6.95,6.95-7.69,7.69,6.95ZM424.17,294.51l-6.95,7.69-7.69-6.95,6.95-7.69,7.69,6.95ZM431.34,286.58l-6.95,7.69-7.69-6.95,6.95-7.69,7.69,6.95ZM438.5,278.65l-6.95,7.69-7.69-6.95,6.95-7.69,7.69,6.95ZM445.67,270.73l-6.95,7.69-7.69-6.95,6.95-7.69,7.69,6.95ZM452.84,262.8l-6.95,7.69-7.69-6.95,6.95-7.69,7.69,6.95ZM460,254.87l-6.95,7.69-7.69-6.95,6.95-7.69,7.69,6.95ZM467.17,246.94l-6.95,7.69-7.69-6.95,6.95-7.69,7.69,6.95ZM474.34,239.01l-6.95,7.69-7.69-6.95,6.95-7.69,7.69,6.95ZM481.5,231.09l-6.95,7.69-7.69-6.95,6.95-7.69,7.69,6.95ZM488.67,223.16l-6.95,7.69-7.69-6.95,6.95-7.69,7.69,6.95ZM481.19,215.97l6.95-7.69,7.69,6.95-6.95,7.69-7.69-6.95ZM237.08,485.55l-6.95,7.69-7.69-6.95,6.95-7.69,7.69,6.95ZM244.25,477.62l-6.95,7.69-7.69-6.95,6.95-7.69,7.69,6.95ZM251.42,469.69l-6.95,7.69-7.69-6.95,6.95-7.69,7.69,6.95ZM258.58,461.76l-6.95,7.69-7.69-6.95,6.95-7.69,7.69,6.95ZM265.75,453.84l-6.95,7.69-7.69-6.95,6.95-7.69,7.69,6.95ZM272.92,445.91l-6.95,7.69-7.69-6.95,6.95-7.69,7.69,6.95ZM280.08,437.98l-6.95,7.69-7.69-6.95,6.95-7.69,7.69,6.95ZM287.25,430.05l-6.95,7.69-7.69-6.95,6.95-7.69,7.69,6.95ZM294.41,422.12l-6.95,7.69-7.69-6.95,6.95-7.69,7.69,6.95ZM301.58,414.2l-6.95,7.69-7.69-6.95,6.95-7.69,7.69,6.95ZM308.75,406.27l-6.95,7.69-7.69-6.95,6.95-7.69,7.69,6.95ZM315.91,398.34l-6.95,7.69-7.69-6.95,6.95-7.69,7.69,6.95ZM323.08,390.41l-6.95,7.69-7.69-6.95,6.95-7.69,7.69,6.95ZM330.25,382.48l-6.95,7.69-7.69-6.95,6.95-7.69,7.69,6.95ZM337.41,374.55l-6.95,7.69-7.69-6.95,6.95-7.69,7.69,6.95ZM344.58,366.63l-6.95,7.69-7.69-6.95,6.95-7.69,7.69,6.95ZM351.75,358.7l-6.95,7.69-7.69-6.95,6.95-7.69,7.69,6.95ZM358.91,350.77l-6.95,7.69-7.69-6.95,6.95-7.69,7.69,6.95ZM366.08,342.84l-6.95,7.69-7.69-6.95,6.95-7.69,7.69,6.95ZM373.24,334.91l-6.95,7.69-7.69-6.95,6.95-7.69,7.69,6.95ZM380.41,326.99l-6.95,7.69-7.69-6.95,6.95-7.69,7.69,6.95ZM387.58,319.06l-6.95,7.69-7.69-6.95,6.95-7.69,7.69,6.95ZM394.74,311.13l-6.95,7.69-7.69-6.95,6.95-7.69,7.69,6.95ZM401.91,303.2l-6.95,7.69-7.69-6.95,6.95-7.69,7.69,6.95ZM409.08,295.27l-6.95,7.69-7.69-6.95,6.95-7.69,7.69,6.95ZM416.24,287.34l-6.95,7.69-7.69-6.95,6.95-7.69,7.69,6.95ZM423.41,279.42l-6.95,7.69-7.69-6.95,6.95-7.69,7.69,6.95ZM430.58,271.49l-6.95,7.69-7.69-6.95,6.95-7.69,7.69,6.95ZM437.74,263.56l-6.95,7.69-7.69-6.95,6.95-7.69,7.69,6.95ZM444.91,255.63l-6.95,7.69-7.69-6.95,6.95-7.69,7.69,6.95ZM452.07,247.7l-6.95,7.69-7.69-6.95,6.95-7.69,7.69,6.95ZM459.24,239.78l-6.95,7.69-7.69-6.95,6.95-7.69,7.69,6.95ZM466.41,231.85l-6.95,7.69-7.69-6.95,6.95-7.69,7.69,6.95ZM473.57,223.92l-6.95,7.69-7.69-6.95,6.95-7.69,7.69,6.95ZM480.74,215.99l-6.95,7.69-7.69-6.95,6.95-7.69,7.69,6.95ZM473.26,208.8l6.95-7.69,7.69,6.95-6.95,7.69-7.69-6.95ZM229.16,478.38l-6.95,7.69-7.69-6.95,6.95-7.69,7.69,6.95ZM236.32,470.45l-6.95,7.69-7.69-6.95,6.95-7.69,7.69,6.95ZM243.49,462.53l-6.95,7.69-7.69-6.95,6.95-7.69,7.69,6.95ZM250.65,454.6l-6.95,7.69-7.69-6.95,6.95-7.69,7.69,6.95ZM257.82,446.67l-6.95,7.69-7.69-6.95,6.95-7.69,7.69,6.95ZM264.99,438.74l-6.95,7.69-7.69-6.95,6.95-7.69,7.69,6.95ZM272.15,430.81l-6.95,7.69-7.69-6.95,6.95-7.69,7.69,6.95ZM279.32,422.88l-6.95,7.69-7.69-6.95,6.95-7.69,7.69,6.95ZM286.49,414.96l-6.95,7.69-7.69-6.95,6.95-7.69,7.69,6.95ZM293.65,407.03l-6.95,7.69-7.69-6.95,6.95-7.69,7.69,6.95ZM300.82,399.1l-6.95,7.69-7.69-6.95,6.95-7.69,7.69,6.95ZM307.99,391.17l-6.95,7.69-7.69-6.95,6.95-7.69,7.69,6.95ZM315.15,383.24l-6.95,7.69-7.69-6.95,6.95-7.69,7.69,6.95ZM322.32,375.32l-6.95,7.69-7.69-6.95,6.95-7.69,7.69,6.95ZM329.48,367.39l-6.95,7.69-7.69-6.95,6.95-7.69,7.69,6.95ZM336.65,359.46l-6.95,7.69-7.69-6.95,6.95-7.69,7.69,6.95ZM343.82,351.53l-6.95,7.69-7.69-6.95,6.95-7.69,7.69,6.95ZM350.98,343.6l-6.95,7.69-7.69-6.95,6.95-7.69,7.69,6.95ZM358.15,335.68l-6.95,7.69-7.69-6.95,6.95-7.69,7.69,6.95ZM365.32,327.75l-6.95,7.69-7.69-6.95,6.95-7.69,7.69,6.95ZM372.48,319.82l-6.95,7.69-7.69-6.95,6.95-7.69,7.69,6.95ZM379.65,311.89l-6.95,7.69-7.69-6.95,6.95-7.69,7.69,6.95ZM386.82,303.96l-6.95,7.69-7.69-6.95,6.95-7.69,7.69,6.95ZM393.98,296.03l-6.95,7.69-7.69-6.95,6.95-7.69,7.69,6.95ZM401.15,288.11l-6.95,7.69-7.69-6.95,6.95-7.69,7.69,6.95ZM408.31,280.18l-6.95,7.69-7.69-6.95,6.95-7.69,7.69,6.95ZM415.48,272.25l-6.95,7.69-7.69-6.95,6.95-7.69,7.69,6.95ZM422.65,264.32l-6.95,7.69-7.69-6.95,6.95-7.69,7.69,6.95ZM429.81,256.39l-6.95,7.69-7.69-6.95,6.95-7.69,7.69,6.95ZM436.98,248.47l-6.95,7.69-7.69-6.95,6.95-7.69,7.69,6.95ZM444.15,240.54l-6.95,7.69-7.69-6.95,6.95-7.69,7.69,6.95ZM451.31,232.61l-6.95,7.69-7.69-6.95,6.95-7.69,7.69,6.95ZM458.48,224.68l-6.95,7.69-7.69-6.95,6.95-7.69,7.69,6.95ZM465.65,216.75l-6.95,7.69-7.69-6.95,6.95-7.69,7.69,6.95ZM472.81,208.82l-6.95,7.69-7.69-6.95,6.95-7.69,7.69,6.95ZM465.34,201.64l6.95-7.69,7.69,6.95-6.95,7.69-7.69-6.95ZM221.23,471.22l-6.95,7.69-7.69-6.95,6.95-7.69,7.69,6.95ZM228.39,463.29l-6.95,7.69-7.69-6.95,6.95-7.69,7.69,6.95ZM235.56,455.36l-6.95,7.69-7.69-6.95,6.95-7.69,7.69,6.95ZM242.73,447.43l-6.95,7.69-7.69-6.95,6.95-7.69,7.69,6.95ZM249.89,439.5l-6.95,7.69-7.69-6.95,6.95-7.69,7.69,6.95ZM257.06,431.58l-6.95,7.69-7.69-6.95,6.95-7.69,7.69,6.95ZM264.23,423.65l-6.95,7.69-7.69-6.95,6.95-7.69,7.69,6.95ZM271.39,415.72l-6.95,7.69-7.69-6.95,6.95-7.69,7.69,6.95ZM278.56,407.79l-6.95,7.69-7.69-6.95,6.95-7.69,7.69,6.95ZM285.72,399.86l-6.95,7.69-7.69-6.95,6.95-7.69,7.69,6.95ZM292.89,391.93l-6.95,7.69-7.69-6.95,6.95-7.69,7.69,6.95ZM300.06,384.01l-6.95,7.69-7.69-6.95,6.95-7.69,7.69,6.95ZM307.22,376.08l-6.95,7.69-7.69-6.95,6.95-7.69,7.69,6.95ZM314.39,368.15l-6.95,7.69-7.69-6.95,6.95-7.69,7.69,6.95ZM321.56,360.22l-6.95,7.69-7.69-6.95,6.95-7.69,7.69,6.95ZM328.72,352.29l-6.95,7.69-7.69-6.95,6.95-7.69,7.69,6.95ZM335.89,344.37l-6.95,7.69-7.69-6.95,6.95-7.69,7.69,6.95ZM343.06,336.44l-6.95,7.69-7.69-6.95,6.95-7.69,7.69,6.95ZM350.22,328.51l-6.95,7.69-7.69-6.95,6.95-7.69,7.69,6.95ZM357.39,320.58l-6.95,7.69-7.69-6.95,6.95-7.69,7.69,6.95ZM364.55,312.65l-6.95,7.69-7.69-6.95,6.95-7.69,7.69,6.95ZM371.72,304.72l-6.95,7.69-7.69-6.95,6.95-7.69,7.69,6.95ZM378.89,296.8l-6.95,7.69-7.69-6.95,6.95-7.69,7.69,6.95ZM386.05,288.87l-6.95,7.69-7.69-6.95,6.95-7.69,7.69,6.95ZM393.22,280.94l-6.95,7.69-7.69-6.95,6.95-7.69,7.69,6.95ZM400.39,273.01l-6.95,7.69-7.69-6.95,6.95-7.69,7.69,6.95ZM407.55,265.08l-6.95,7.69-7.69-6.95,6.95-7.69,7.69,6.95ZM414.72,257.16l-6.95,7.69-7.69-6.95,6.95-7.69,7.69,6.95ZM421.89,249.23l-6.95,7.69-7.69-6.95,6.95-7.69,7.69,6.95ZM429.05,241.3l-6.95,7.69-7.69-6.95,6.95-7.69,7.69,6.95ZM436.22,233.37l-6.95,7.69-7.69-6.95,6.95-7.69,7.69,6.95ZM443.38,225.44l-6.95,7.69-7.69-6.95,6.95-7.69,7.69,6.95ZM450.55,217.51l-6.95,7.69-7.69-6.95,6.95-7.69,7.69,6.95ZM457.72,209.59l-6.95,7.69-7.69-6.95,6.95-7.69,7.69,6.95ZM464.88,201.66l-6.95,7.69-7.69-6.95,6.95-7.69,7.69,6.95ZM457.41,194.47l6.95-7.69,7.69,6.95-6.95,7.69-7.69-6.95ZM213.3,464.05l-6.95,7.69-7.69-6.95,6.95-7.69,7.69,6.95ZM220.47,456.12l-6.95,7.69-7.69-6.95,6.95-7.69,7.69,6.95ZM227.63,448.19l-6.95,7.69-7.69-6.95,6.95-7.69,7.69,6.95ZM234.8,440.26l-6.95,7.69-7.69-6.95,6.95-7.69,7.69,6.95ZM241.96,432.34l-6.95,7.69-7.69-6.95,6.95-7.69,7.69,6.95ZM249.13,424.41l-6.95,7.69-7.69-6.95,6.95-7.69,7.69,6.95ZM256.3,416.48l-6.95,7.69-7.69-6.95,6.95-7.69,7.69,6.95ZM263.46,408.55l-6.95,7.69-7.69-6.95,6.95-7.69,7.69,6.95ZM270.63,400.62l-6.95,7.69-7.69-6.95,6.95-7.69,7.69,6.95ZM277.8,392.7l-6.95,7.69-7.69-6.95,6.95-7.69,7.69,6.95ZM284.96,384.77l-6.95,7.69-7.69-6.95,6.95-7.69,7.69,6.95ZM292.13,376.84l-6.95,7.69-7.69-6.95,6.95-7.69,7.69,6.95ZM299.3,368.91l-6.95,7.69-7.69-6.95,6.95-7.69,7.69,6.95ZM306.46,360.98l-6.95,7.69-7.69-6.95,6.95-7.69,7.69,6.95ZM313.63,353.06l-6.95,7.69-7.69-6.95,6.95-7.69,7.69,6.95ZM320.79,345.13l-6.95,7.69-7.69-6.95,6.95-7.69,7.69,6.95ZM327.96,337.2l-6.95,7.69-7.69-6.95,6.95-7.69,7.69,6.95ZM335.13,329.27l-6.95,7.69-7.69-6.95,6.95-7.69,7.69,6.95ZM342.29,321.34l-6.95,7.69-7.69-6.95,6.95-7.69,7.69,6.95ZM349.46,313.41l-6.95,7.69-7.69-6.95,6.95-7.69,7.69,6.95ZM356.63,305.49l-6.95,7.69-7.69-6.95,6.95-7.69,7.69,6.95ZM363.79,297.56l-6.95,7.69-7.69-6.95,6.95-7.69,7.69,6.95ZM370.96,289.63l-6.95,7.69-7.69-6.95,6.95-7.69,7.69,6.95ZM378.13,281.7l-6.95,7.69-7.69-6.95,6.95-7.69,7.69,6.95ZM385.29,273.77l-6.95,7.69-7.69-6.95,6.95-7.69,7.69,6.95ZM392.46,265.85l-6.95,7.69-7.69-6.95,6.95-7.69,7.69,6.95ZM399.62,257.92l-6.95,7.69-7.69-6.95,6.95-7.69,7.69,6.95ZM406.79,249.99l-6.95,7.69-7.69-6.95,6.95-7.69,7.69,6.95ZM413.96,242.06l-6.95,7.69-7.69-6.95,6.95-7.69,7.69,6.95ZM421.12,234.13l-6.95,7.69-7.69-6.95,6.95-7.69,7.69,6.95ZM428.29,226.2l-6.95,7.69-7.69-6.95,6.95-7.69,7.69,6.95ZM435.46,218.28l-6.95,7.69-7.69-6.95,6.95-7.69,7.69,6.95ZM442.62,210.35l-6.95,7.69-7.69-6.95,6.95-7.69,7.69,6.95ZM449.79,202.42l-6.95,7.69-7.69-6.95,6.95-7.69,7.69,6.95ZM456.96,194.49l-6.95,7.69-7.69-6.95,6.95-7.69,7.69,6.95ZM449.48,187.3l6.95-7.69,7.69,6.95-6.95,7.69-7.69-6.95ZM205.37,456.88l-6.95,7.69-7.69-6.95,6.95-7.69,7.69,6.95ZM212.54,448.96l-6.95,7.69-7.69-6.95,6.95-7.69,7.69,6.95ZM219.7,441.03l-6.95,7.69-7.69-6.95,6.95-7.69,7.69,6.95ZM226.87,433.1l-6.95,7.69-7.69-6.95,6.95-7.69,7.69,6.95ZM234.04,425.17l-6.95,7.69-7.69-6.95,6.95-7.69,7.69,6.95ZM241.2,417.24l-6.95,7.69-7.69-6.95,6.95-7.69,7.69,6.95ZM248.37,409.31l-6.95,7.69-7.69-6.95,6.95-7.69,7.69,6.95ZM255.54,401.39l-6.95,7.69-7.69-6.95,6.95-7.69,7.69,6.95ZM262.7,393.46l-6.95,7.69-7.69-6.95,6.95-7.69,7.69,6.95ZM269.87,385.53l-6.95,7.69-7.69-6.95,6.95-7.69,7.69,6.95ZM277.03,377.6l-6.95,7.69-7.69-6.95,6.95-7.69,7.69,6.95ZM284.2,369.67l-6.95,7.69-7.69-6.95,6.95-7.69,7.69,6.95ZM291.37,361.75l-6.95,7.69-7.69-6.95,6.95-7.69,7.69,6.95ZM298.53,353.82l-6.95,7.69-7.69-6.95,6.95-7.69,7.69,6.95ZM305.7,345.89l-6.95,7.69-7.69-6.95,6.95-7.69,7.69,6.95ZM312.87,337.96l-6.95,7.69-7.69-6.95,6.95-7.69,7.69,6.95ZM320.03,330.03l-6.95,7.69-7.69-6.95,6.95-7.69,7.69,6.95ZM327.2,322.1l-6.95,7.69-7.69-6.95,6.95-7.69,7.69,6.95ZM334.37,314.18l-6.95,7.69-7.69-6.95,6.95-7.69,7.69,6.95ZM341.53,306.25l-6.95,7.69-7.69-6.95,6.95-7.69,7.69,6.95ZM348.7,298.32l-6.95,7.69-7.69-6.95,6.95-7.69,7.69,6.95ZM355.86,290.39l-6.95,7.69-7.69-6.95,6.95-7.69,7.69,6.95ZM363.03,282.46l-6.95,7.69-7.69-6.95,6.95-7.69,7.69,6.95ZM370.2,274.54l-6.95,7.69-7.69-6.95,6.95-7.69,7.69,6.95ZM377.36,266.61l-6.95,7.69-7.69-6.95,6.95-7.69,7.69,6.95ZM384.53,258.68l-6.95,7.69-7.69-6.95,6.95-7.69,7.69,6.95ZM391.7,250.75l-6.95,7.69-7.69-6.95,6.95-7.69,7.69,6.95ZM398.86,242.82l-6.95,7.69-7.69-6.95,6.95-7.69,7.69,6.95ZM406.03,234.89l-6.95,7.69-7.69-6.95,6.95-7.69,7.69,6.95ZM413.2,226.97l-6.95,7.69-7.69-6.95,6.95-7.69,7.69,6.95ZM420.36,219.04l-6.95,7.69-7.69-6.95,6.95-7.69,7.69,6.95ZM427.53,211.11l-6.95,7.69-7.69-6.95,6.95-7.69,7.69,6.95ZM434.69,203.18l-6.95,7.69-7.69-6.95,6.95-7.69,7.69,6.95ZM441.86,195.25l-6.95,7.69-7.69-6.95,6.95-7.69,7.69,6.95ZM449.03,187.33l-6.95,7.69-7.69-6.95,6.95-7.69,7.69,6.95ZM441.55,180.14l6.95-7.69,7.69,6.95-6.95,7.69-7.69-6.95ZM197.44,449.72l-6.95,7.69-7.69-6.95,6.95-7.69,7.69,6.95ZM204.61,441.79l-6.95,7.69-7.69-6.95,6.95-7.69,7.69,6.95ZM211.78,433.86l-6.95,7.69-7.69-6.95,6.95-7.69,7.69,6.95ZM218.94,425.93l-6.95,7.69-7.69-6.95,6.95-7.69,7.69,6.95ZM226.11,418l-6.95,7.69-7.69-6.95,6.95-7.69,7.69,6.95ZM233.27,410.08l-6.95,7.69-7.69-6.95,6.95-7.69,7.69,6.95ZM240.44,402.15l-6.95,7.69-7.69-6.95,6.95-7.69,7.69,6.95ZM247.61,394.22l-6.95,7.69-7.69-6.95,6.95-7.69,7.69,6.95ZM254.77,386.29l-6.95,7.69-7.69-6.95,6.95-7.69,7.69,6.95ZM261.94,378.36l-6.95,7.69-7.69-6.95,6.95-7.69,7.69,6.95ZM269.11,370.44l-6.95,7.69-7.69-6.95,6.95-7.69,7.69,6.95ZM276.27,362.51l-6.95,7.69-7.69-6.95,6.95-7.69,7.69,6.95ZM283.44,354.58l-6.95,7.69-7.69-6.95,6.95-7.69,7.69,6.95ZM290.61,346.65l-6.95,7.69-7.69-6.95,6.95-7.69,7.69,6.95ZM297.77,338.72l-6.95,7.69-7.69-6.95,6.95-7.69,7.69,6.95ZM304.94,330.79l-6.95,7.69-7.69-6.95,6.95-7.69,7.69,6.95ZM312.11,322.87l-6.95,7.69-7.69-6.95,6.95-7.69,7.69,6.95ZM319.27,314.94l-6.95,7.69-7.69-6.95,6.95-7.69,7.69,6.95ZM326.44,307.01l-6.95,7.69-7.69-6.95,6.95-7.69,7.69,6.95ZM333.6,299.08l-6.95,7.69-7.69-6.95,6.95-7.69,7.69,6.95ZM340.77,291.15l-6.95,7.69-7.69-6.95,6.95-7.69,7.69,6.95ZM347.94,283.23l-6.95,7.69-7.69-6.95,6.95-7.69,7.69,6.95ZM355.1,275.3l-6.95,7.69-7.69-6.95,6.95-7.69,7.69,6.95ZM362.27,267.37l-6.95,7.69-7.69-6.95,6.95-7.69,7.69,6.95ZM369.44,259.44l-6.95,7.69-7.69-6.95,6.95-7.69,7.69,6.95ZM376.6,251.51l-6.95,7.69-7.69-6.95,6.95-7.69,7.69,6.95ZM383.77,243.59l-6.95,7.69-7.69-6.95,6.95-7.69,7.69,6.95ZM390.93,235.66l-6.95,7.69-7.69-6.95,6.95-7.69,7.69,6.95ZM398.1,227.73l-6.95,7.69-7.69-6.95,6.95-7.69,7.69,6.95ZM405.27,219.8l-6.95,7.69-7.69-6.95,6.95-7.69,7.69,6.95ZM412.43,211.87l-6.95,7.69-7.69-6.95,6.95-7.69,7.69,6.95ZM419.6,203.94l-6.95,7.69-7.69-6.95,6.95-7.69,7.69,6.95ZM426.77,196.02l-6.95,7.69-7.69-6.95,6.95-7.69,7.69,6.95ZM433.93,188.09l-6.95,7.69-7.69-6.95,6.95-7.69,7.69,6.95ZM441.1,180.16l-6.95,7.69-7.69-6.95,6.95-7.69,7.69,6.95ZM433.62,172.97l6.95-7.69,7.69,6.95-6.95,7.69-7.69-6.95ZM189.51,442.55l-6.95,7.69-7.69-6.95,6.95-7.69,7.69,6.95ZM196.68,434.62l-6.95,7.69-7.69-6.95,6.95-7.69,7.69,6.95ZM203.85,426.69l-6.95,7.69-7.69-6.95,6.95-7.69,7.69,6.95ZM211.01,418.77l-6.95,7.69-7.69-6.95,6.95-7.69,7.69,6.95ZM218.18,410.84l-6.95,7.69-7.69-6.95,6.95-7.69,7.69,6.95ZM225.35,402.91l-6.95,7.69-7.69-6.95,6.95-7.69,7.69,6.95ZM232.51,394.98l-6.95,7.69-7.69-6.95,6.95-7.69,7.69,6.95ZM239.68,387.05l-6.95,7.69-7.69-6.95,6.95-7.69,7.69,6.95ZM246.85,379.13l-6.95,7.69-7.69-6.95,6.95-7.69,7.69,6.95ZM254.01,371.2l-6.95,7.69-7.69-6.95,6.95-7.69,7.69,6.95ZM261.18,363.27l-6.95,7.69-7.69-6.95,6.95-7.69,7.69,6.95ZM268.34,355.34l-6.95,7.69-7.69-6.95,6.95-7.69,7.69,6.95ZM275.51,347.41l-6.95,7.69-7.69-6.95,6.95-7.69,7.69,6.95ZM282.68,339.48l-6.95,7.69-7.69-6.95,6.95-7.69,7.69,6.95ZM289.84,331.56l-6.95,7.69-7.69-6.95,6.95-7.69,7.69,6.95ZM297.01,323.63l-6.95,7.69-7.69-6.95,6.95-7.69,7.69,6.95ZM304.18,315.7l-6.95,7.69-7.69-6.95,6.95-7.69,7.69,6.95ZM311.34,307.77l-6.95,7.69-7.69-6.95,6.95-7.69,7.69,6.95ZM318.51,299.84l-6.95,7.69-7.69-6.95,6.95-7.69,7.69,6.95ZM325.68,291.92l-6.95,7.69-7.69-6.95,6.95-7.69,7.69,6.95ZM332.84,283.99l-6.95,7.69-7.69-6.95,6.95-7.69,7.69,6.95ZM340.01,276.06l-6.95,7.69-7.69-6.95,6.95-7.69,7.69,6.95ZM347.17,268.13l-6.95,7.69-7.69-6.95,6.95-7.69,7.69,6.95ZM354.34,260.2l-6.95,7.69-7.69-6.95,6.95-7.69,7.69,6.95ZM361.51,252.27l-6.95,7.69-7.69-6.95,6.95-7.69,7.69,6.95ZM368.67,244.35l-6.95,7.69-7.69-6.95,6.95-7.69,7.69,6.95ZM375.84,236.42l-6.95,7.69-7.69-6.95,6.95-7.69,7.69,6.95ZM383.01,228.49l-6.95,7.69-7.69-6.95,6.95-7.69,7.69,6.95ZM390.17,220.56l-6.95,7.69-7.69-6.95,6.95-7.69,7.69,6.95ZM397.34,212.63l-6.95,7.69-7.69-6.95,6.95-7.69,7.69,6.95ZM404.51,204.71l-6.95,7.69-7.69-6.95,6.95-7.69,7.69,6.95ZM411.67,196.78l-6.95,7.69-7.69-6.95,6.95-7.69,7.69,6.95ZM418.84,188.85l-6.95,7.69-7.69-6.95,6.95-7.69,7.69,6.95ZM426,180.92l-6.95,7.69-7.69-6.95,6.95-7.69,7.69,6.95ZM433.17,172.99l-6.95,7.69-7.69-6.95,6.95-7.69,7.69,6.95ZM425.7,165.8l6.95-7.69,7.69,6.95-6.95,7.69-7.69-6.95ZM181.59,435.38l-6.95,7.69-7.69-6.95,6.95-7.69,7.69,6.95ZM188.75,427.46l-6.95,7.69-7.69-6.95,6.95-7.69,7.69,6.95ZM195.92,419.53l-6.95,7.69-7.69-6.95,6.95-7.69,7.69,6.95ZM203.09,411.6l-6.95,7.69-7.69-6.95,6.95-7.69,7.69,6.95ZM210.25,403.67l-6.95,7.69-7.69-6.95,6.95-7.69,7.69,6.95ZM217.42,395.74l-6.95,7.69-7.69-6.95,6.95-7.69,7.69,6.95ZM224.58,387.81l-6.95,7.69-7.69-6.95,6.95-7.69,7.69,6.95ZM231.75,379.89l-6.95,7.69-7.69-6.95,6.95-7.69,7.69,6.95ZM238.92,371.96l-6.95,7.69-7.69-6.95,6.95-7.69,7.69,6.95ZM246.08,364.03l-6.95,7.69-7.69-6.95,6.95-7.69,7.69,6.95ZM253.25,356.1l-6.95,7.69-7.69-6.95,6.95-7.69,7.69,6.95ZM260.42,348.17l-6.95,7.69-7.69-6.95,6.95-7.69,7.69,6.95ZM267.58,340.25l-6.95,7.69-7.69-6.95,6.95-7.69,7.69,6.95ZM274.75,332.32l-6.95,7.69-7.69-6.95,6.95-7.69,7.69,6.95ZM281.92,324.39l-6.95,7.69-7.69-6.95,6.95-7.69,7.69,6.95ZM289.08,316.46l-6.95,7.69-7.69-6.95,6.95-7.69,7.69,6.95ZM296.25,308.53l-6.95,7.69-7.69-6.95,6.95-7.69,7.69,6.95ZM303.41,300.6l-6.95,7.69-7.69-6.95,6.95-7.69,7.69,6.95ZM310.58,292.68l-6.95,7.69-7.69-6.95,6.95-7.69,7.69,6.95ZM317.75,284.75l-6.95,7.69-7.69-6.95,6.95-7.69,7.69,6.95ZM324.91,276.82l-6.95,7.69-7.69-6.95,6.95-7.69,7.69,6.95ZM332.08,268.89l-6.95,7.69-7.69-6.95,6.95-7.69,7.69,6.95ZM339.25,260.96l-6.95,7.69-7.69-6.95,6.95-7.69,7.69,6.95ZM346.41,253.04l-6.95,7.69-7.69-6.95,6.95-7.69,7.69,6.95ZM353.58,245.11l-6.95,7.69-7.69-6.95,6.95-7.69,7.69,6.95ZM360.75,237.18l-6.95,7.69-7.69-6.95,6.95-7.69,7.69,6.95ZM367.91,229.25l-6.95,7.69-7.69-6.95,6.95-7.69,7.69,6.95ZM375.08,221.32l-6.95,7.69-7.69-6.95,6.95-7.69,7.69,6.95ZM382.24,213.4l-6.95,7.69-7.69-6.95,6.95-7.69,7.69,6.95ZM389.41,205.47l-6.95,7.69-7.69-6.95,6.95-7.69,7.69,6.95ZM396.58,197.54l-6.95,7.69-7.69-6.95,6.95-7.69,7.69,6.95ZM403.74,189.61l-6.95,7.69-7.69-6.95,6.95-7.69,7.69,6.95ZM410.91,181.68l-6.95,7.69-7.69-6.95,6.95-7.69,7.69,6.95ZM418.08,173.75l-6.95,7.69-7.69-6.95,6.95-7.69,7.69,6.95ZM425.24,165.83l-6.95,7.69-7.69-6.95,6.95-7.69,7.69,6.95ZM417.77,158.64l6.95-7.69,7.69,6.95-6.95,7.69-7.69-6.95ZM173.66,428.22l-6.95,7.69-7.69-6.95,6.95-7.69,7.69,6.95ZM180.82,420.29l-6.95,7.69-7.69-6.95,6.95-7.69,7.69,6.95ZM187.99,412.36l-6.95,7.69-7.69-6.95,6.95-7.69,7.69,6.95ZM195.16,404.43l-6.95,7.69-7.69-6.95,6.95-7.69,7.69,6.95ZM202.32,396.5l-6.95,7.69-7.69-6.95,6.95-7.69,7.69,6.95ZM209.49,388.58l-6.95,7.69-7.69-6.95,6.95-7.69,7.69,6.95ZM216.66,380.65l-6.95,7.69-7.69-6.95,6.95-7.69,7.69,6.95ZM223.82,372.72l-6.95,7.69-7.69-6.95,6.95-7.69,7.69,6.95ZM230.99,364.79l-6.95,7.69-7.69-6.95,6.95-7.69,7.69,6.95ZM238.16,356.86l-6.95,7.69-7.69-6.95,6.95-7.69,7.69,6.95ZM245.32,348.94l-6.95,7.69-7.69-6.95,6.95-7.69,7.69,6.95ZM252.49,341.01l-6.95,7.69-7.69-6.95,6.95-7.69,7.69,6.95ZM259.65,333.08l-6.95,7.69-7.69-6.95,6.95-7.69,7.69,6.95ZM266.82,325.15l-6.95,7.69-7.69-6.95,6.95-7.69,7.69,6.95ZM273.99,317.22l-6.95,7.69-7.69-6.95,6.95-7.69,7.69,6.95ZM281.15,309.3l-6.95,7.69-7.69-6.95,6.95-7.69,7.69,6.95ZM288.32,301.37l-6.95,7.69-7.69-6.95,6.95-7.69,7.69,6.95ZM295.49,293.44l-6.95,7.69-7.69-6.95,6.95-7.69,7.69,6.95ZM302.65,285.51l-6.95,7.69-7.69-6.95,6.95-7.69,7.69,6.95ZM309.82,277.58l-6.95,7.69-7.69-6.95,6.95-7.69,7.69,6.95ZM316.99,269.65l-6.95,7.69-7.69-6.95,6.95-7.69,7.69,6.95ZM324.15,261.73l-6.95,7.69-7.69-6.95,6.95-7.69,7.69,6.95ZM331.32,253.8l-6.95,7.69-7.69-6.95,6.95-7.69,7.69,6.95ZM338.48,245.87l-6.95,7.69-7.69-6.95,6.95-7.69,7.69,6.95ZM345.65,237.94l-6.95,7.69-7.69-6.95,6.95-7.69,7.69,6.95ZM352.82,230.01l-6.95,7.69-7.69-6.95,6.95-7.69,7.69,6.95ZM359.98,222.09l-6.95,7.69-7.69-6.95,6.95-7.69,7.69,6.95ZM367.15,214.16l-6.95,7.69-7.69-6.95,6.95-7.69,7.69,6.95ZM374.32,206.23l-6.95,7.69-7.69-6.95,6.95-7.69,7.69,6.95ZM381.48,198.3l-6.95,7.69-7.69-6.95,6.95-7.69,7.69,6.95ZM388.65,190.37l-6.95,7.69-7.69-6.95,6.95-7.69,7.69,6.95ZM395.82,182.44l-6.95,7.69-7.69-6.95,6.95-7.69,7.69,6.95ZM402.98,174.52l-6.95,7.69-7.69-6.95,6.95-7.69,7.69,6.95ZM410.15,166.59l-6.95,7.69-7.69-6.95,6.95-7.69,7.69,6.95ZM417.31,158.66l-6.95,7.69-7.69-6.95,6.95-7.69,7.69,6.95ZM409.84,151.47l6.95-7.69,7.69,6.95-6.95,7.69-7.69-6.95ZM165.73,421.05l-6.95,7.69-7.69-6.95,6.95-7.69,7.69,6.95ZM172.9,413.12l-6.95,7.69-7.69-6.95,6.95-7.69,7.69,6.95ZM180.06,405.19l-6.95,7.69-7.69-6.95,6.95-7.69,7.69,6.95ZM187.23,397.27l-6.95,7.69-7.69-6.95,6.95-7.69,7.69,6.95ZM194.4,389.34l-6.95,7.69-7.69-6.95,6.95-7.69,7.69,6.95ZM201.56,381.41l-6.95,7.69-7.69-6.95,6.95-7.69,7.69,6.95ZM208.73,373.48l-6.95,7.69-7.69-6.95,6.95-7.69,7.69,6.95ZM215.89,365.55l-6.95,7.69-7.69-6.95,6.95-7.69,7.69,6.95ZM223.06,357.63l-6.95,7.69-7.69-6.95,6.95-7.69,7.69,6.95ZM230.23,349.7l-6.95,7.69-7.69-6.95,6.95-7.69,7.69,6.95ZM237.39,341.77l-6.95,7.69-7.69-6.95,6.95-7.69,7.69,6.95ZM244.56,333.84l-6.95,7.69-7.69-6.95,6.95-7.69,7.69,6.95ZM251.73,325.91l-6.95,7.69-7.69-6.95,6.95-7.69,7.69,6.95ZM258.89,317.99l-6.95,7.69-7.69-6.95,6.95-7.69,7.69,6.95ZM266.06,310.06l-6.95,7.69-7.69-6.95,6.95-7.69,7.69,6.95ZM273.23,302.13l-6.95,7.69-7.69-6.95,6.95-7.69,7.69,6.95ZM280.39,294.2l-6.95,7.69-7.69-6.95,6.95-7.69,7.69,6.95ZM287.56,286.27l-6.95,7.69-7.69-6.95,6.95-7.69,7.69,6.95ZM294.73,278.34l-6.95,7.69-7.69-6.95,6.95-7.69,7.69,6.95ZM301.89,270.42l-6.95,7.69-7.69-6.95,6.95-7.69,7.69,6.95ZM309.06,262.49l-6.95,7.69-7.69-6.95,6.95-7.69,7.69,6.95ZM316.22,254.56l-6.95,7.69-7.69-6.95,6.95-7.69,7.69,6.95ZM323.39,246.63l-6.95,7.69-7.69-6.95,6.95-7.69,7.69,6.95ZM330.56,238.7l-6.95,7.69-7.69-6.95,6.95-7.69,7.69,6.95ZM337.72,230.78l-6.95,7.69-7.69-6.95,6.95-7.69,7.69,6.95ZM344.89,222.85l-6.95,7.69-7.69-6.95,6.95-7.69,7.69,6.95ZM352.06,214.92l-6.95,7.69-7.69-6.95,6.95-7.69,7.69,6.95ZM359.22,206.99l-6.95,7.69-7.69-6.95,6.95-7.69,7.69,6.95ZM366.39,199.06l-6.95,7.69-7.69-6.95,6.95-7.69,7.69,6.95ZM373.55,191.13l-6.95,7.69-7.69-6.95,6.95-7.69,7.69,6.95ZM380.72,183.21l-6.95,7.69-7.69-6.95,6.95-7.69,7.69,6.95ZM387.89,175.28l-6.95,7.69-7.69-6.95,6.95-7.69,7.69,6.95ZM395.05,167.35l-6.95,7.69-7.69-6.95,6.95-7.69,7.69,6.95ZM402.22,159.42l-6.95,7.69-7.69-6.95,6.95-7.69,7.69,6.95ZM409.39,151.49l-6.95,7.69-7.69-6.95,6.95-7.69,7.69,6.95ZM401.91,144.3l6.95-7.69,7.69,6.95-6.95,7.69-7.69-6.95ZM157.8,413.88l-6.95,7.69-7.69-6.95,6.95-7.69,7.69,6.95ZM164.97,405.96l-6.95,7.69-7.69-6.95,6.95-7.69,7.69,6.95ZM172.13,398.03l-6.95,7.69-7.69-6.95,6.95-7.69,7.69,6.95ZM179.3,390.1l-6.95,7.69-7.69-6.95,6.95-7.69,7.69,6.95ZM186.47,382.17l-6.95,7.69-7.69-6.95,6.95-7.69,7.69,6.95ZM193.63,374.24l-6.95,7.69-7.69-6.95,6.95-7.69,7.69,6.95ZM200.8,366.32l-6.95,7.69-7.69-6.95,6.95-7.69,7.69,6.95ZM207.97,358.39l-6.95,7.69-7.69-6.95,6.95-7.69,7.69,6.95ZM215.13,350.46l-6.95,7.69-7.69-6.95,6.95-7.69,7.69,6.95ZM222.3,342.53l-6.95,7.69-7.69-6.95,6.95-7.69,7.69,6.95ZM229.47,334.6l-6.95,7.69-7.69-6.95,6.95-7.69,7.69,6.95ZM236.63,326.67l-6.95,7.69-7.69-6.95,6.95-7.69,7.69,6.95ZM243.8,318.75l-6.95,7.69-7.69-6.95,6.95-7.69,7.69,6.95ZM250.96,310.82l-6.95,7.69-7.69-6.95,6.95-7.69,7.69,6.95ZM258.13,302.89l-6.95,7.69-7.69-6.95,6.95-7.69,7.69,6.95ZM265.3,294.96l-6.95,7.69-7.69-6.95,6.95-7.69,7.69,6.95ZM272.46,287.03l-6.95,7.69-7.69-6.95,6.95-7.69,7.69,6.95ZM279.63,279.11l-6.95,7.69-7.69-6.95,6.95-7.69,7.69,6.95ZM286.8,271.18l-6.95,7.69-7.69-6.95,6.95-7.69,7.69,6.95ZM293.96,263.25l-6.95,7.69-7.69-6.95,6.95-7.69,7.69,6.95ZM301.13,255.32l-6.95,7.69-7.69-6.95,6.95-7.69,7.69,6.95ZM308.3,247.39l-6.95,7.69-7.69-6.95,6.95-7.69,7.69,6.95ZM315.46,239.47l-6.95,7.69-7.69-6.95,6.95-7.69,7.69,6.95ZM322.63,231.54l-6.95,7.69-7.69-6.95,6.95-7.69,7.69,6.95ZM329.79,223.61l-6.95,7.69-7.69-6.95,6.95-7.69,7.69,6.95ZM336.96,215.68l-6.95,7.69-7.69-6.95,6.95-7.69,7.69,6.95ZM344.13,207.75l-6.95,7.69-7.69-6.95,6.95-7.69,7.69,6.95ZM351.29,199.82l-6.95,7.69-7.69-6.95,6.95-7.69,7.69,6.95ZM358.46,191.9l-6.95,7.69-7.69-6.95,6.95-7.69,7.69,6.95ZM365.63,183.97l-6.95,7.69-7.69-6.95,6.95-7.69,7.69,6.95ZM372.79,176.04l-6.95,7.69-7.69-6.95,6.95-7.69,7.69,6.95ZM379.96,168.11l-6.95,7.69-7.69-6.95,6.95-7.69,7.69,6.95ZM387.13,160.18l-6.95,7.69-7.69-6.95,6.95-7.69,7.69,6.95ZM394.29,152.26l-6.95,7.69-7.69-6.95,6.95-7.69,7.69,6.95ZM401.46,144.33l-6.95,7.69-7.69-6.95,6.95-7.69,7.69,6.95ZM393.98,137.14l6.95-7.69,7.69,6.95-6.95,7.69-7.69-6.95ZM149.87,406.72l-6.95,7.69-7.69-6.95,6.95-7.69,7.69,6.95ZM157.04,398.79l-6.95,7.69-7.69-6.95,6.95-7.69,7.69,6.95ZM164.21,390.86l-6.95,7.69-7.69-6.95,6.95-7.69,7.69,6.95ZM171.37,382.93l-6.95,7.69-7.69-6.95,6.95-7.69,7.69,6.95ZM178.54,375.01l-6.95,7.69-7.69-6.95,6.95-7.69,7.69,6.95ZM185.71,367.08l-6.95,7.69-7.69-6.95,6.95-7.69,7.69,6.95ZM192.87,359.15l-6.95,7.69-7.69-6.95,6.95-7.69,7.69,6.95ZM200.04,351.22l-6.95,7.69-7.69-6.95,6.95-7.69,7.69,6.95ZM207.2,343.29l-6.95,7.69-7.69-6.95,6.95-7.69,7.69,6.95ZM214.37,335.36l-6.95,7.69-7.69-6.95,6.95-7.69,7.69,6.95ZM221.54,327.44l-6.95,7.69-7.69-6.95,6.95-7.69,7.69,6.95ZM228.7,319.51l-6.95,7.69-7.69-6.95,6.95-7.69,7.69,6.95ZM235.87,311.58l-6.95,7.69-7.69-6.95,6.95-7.69,7.69,6.95ZM243.04,303.65l-6.95,7.69-7.69-6.95,6.95-7.69,7.69,6.95ZM250.2,295.72l-6.95,7.69-7.69-6.95,6.95-7.69,7.69,6.95ZM257.37,287.8l-6.95,7.69-7.69-6.95,6.95-7.69,7.69,6.95ZM264.54,279.87l-6.95,7.69-7.69-6.95,6.95-7.69,7.69,6.95ZM271.7,271.94l-6.95,7.69-7.69-6.95,6.95-7.69,7.69,6.95ZM278.87,264.01l-6.95,7.69-7.69-6.95,6.95-7.69,7.69,6.95ZM286.03,256.08l-6.95,7.69-7.69-6.95,6.95-7.69,7.69,6.95ZM293.2,248.16l-6.95,7.69-7.69-6.95,6.95-7.69,7.69,6.95ZM300.37,240.23l-6.95,7.69-7.69-6.95,6.95-7.69,7.69,6.95ZM307.53,232.3l-6.95,7.69-7.69-6.95,6.95-7.69,7.69,6.95ZM314.7,224.37l-6.95,7.69-7.69-6.95,6.95-7.69,7.69,6.95ZM321.87,216.44l-6.95,7.69-7.69-6.95,6.95-7.69,7.69,6.95ZM329.03,208.51l-6.95,7.69-7.69-6.95,6.95-7.69,7.69,6.95ZM336.2,200.59l-6.95,7.69-7.69-6.95,6.95-7.69,7.69,6.95ZM343.37,192.66l-6.95,7.69-7.69-6.95,6.95-7.69,7.69,6.95ZM350.53,184.73l-6.95,7.69-7.69-6.95,6.95-7.69,7.69,6.95ZM357.7,176.8l-6.95,7.69-7.69-6.95,6.95-7.69,7.69,6.95ZM364.86,168.87l-6.95,7.69-7.69-6.95,6.95-7.69,7.69,6.95ZM372.03,160.95l-6.95,7.69-7.69-6.95,6.95-7.69,7.69,6.95ZM379.2,153.02l-6.95,7.69-7.69-6.95,6.95-7.69,7.69,6.95ZM386.36,145.09l-6.95,7.69-7.69-6.95,6.95-7.69,7.69,6.95ZM393.53,137.16l-6.95,7.69-7.69-6.95,6.95-7.69,7.69,6.95ZM386.05,129.97l6.95-7.69,7.69,6.95-6.95,7.69-7.69-6.95ZM141.95,399.55l-6.95,7.69-7.69-6.95,6.95-7.69,7.69,6.95ZM149.11,391.62l-6.95,7.69-7.69-6.95,6.95-7.69,7.69,6.95ZM156.28,383.7l-6.95,7.69-7.69-6.95,6.95-7.69,7.69,6.95ZM163.44,375.77l-6.95,7.69-7.69-6.95,6.95-7.69,7.69,6.95ZM170.61,367.84l-6.95,7.69-7.69-6.95,6.95-7.69,7.69,6.95ZM177.78,359.91l-6.95,7.69-7.69-6.95,6.95-7.69,7.69,6.95ZM184.94,351.98l-6.95,7.69-7.69-6.95,6.95-7.69,7.69,6.95ZM192.11,344.05l-6.95,7.69-7.69-6.95,6.95-7.69,7.69,6.95ZM199.28,336.13l-6.95,7.69-7.69-6.95,6.95-7.69,7.69,6.95ZM206.44,328.2l-6.95,7.69-7.69-6.95,6.95-7.69,7.69,6.95ZM213.61,320.27l-6.95,7.69-7.69-6.95,6.95-7.69,7.69,6.95ZM220.78,312.34l-6.95,7.69-7.69-6.95,6.95-7.69,7.69,6.95ZM227.94,304.41l-6.95,7.69-7.69-6.95,6.95-7.69,7.69,6.95ZM235.11,296.49l-6.95,7.69-7.69-6.95,6.95-7.69,7.69,6.95ZM242.27,288.56l-6.95,7.69-7.69-6.95,6.95-7.69,7.69,6.95ZM249.44,280.63l-6.95,7.69-7.69-6.95,6.95-7.69,7.69,6.95ZM256.61,272.7l-6.95,7.69-7.69-6.95,6.95-7.69,7.69,6.95ZM263.77,264.77l-6.95,7.69-7.69-6.95,6.95-7.69,7.69,6.95ZM270.94,256.84l-6.95,7.69-7.69-6.95,6.95-7.69,7.69,6.95ZM278.11,248.92l-6.95,7.69-7.69-6.95,6.95-7.69,7.69,6.95ZM285.27,240.99l-6.95,7.69-7.69-6.95,6.95-7.69,7.69,6.95ZM292.44,233.06l-6.95,7.69-7.69-6.95,6.95-7.69,7.69,6.95ZM299.61,225.13l-6.95,7.69-7.69-6.95,6.95-7.69,7.69,6.95ZM306.77,217.2l-6.95,7.69-7.69-6.95,6.95-7.69,7.69,6.95ZM313.94,209.28l-6.95,7.69-7.69-6.95,6.95-7.69,7.69,6.95ZM321.1,201.35l-6.95,7.69-7.69-6.95,6.95-7.69,7.69,6.95ZM328.27,193.42l-6.95,7.69-7.69-6.95,6.95-7.69,7.69,6.95ZM335.44,185.49l-6.95,7.69-7.69-6.95,6.95-7.69,7.69,6.95ZM342.6,177.56l-6.95,7.69-7.69-6.95,6.95-7.69,7.69,6.95ZM349.77,169.64l-6.95,7.69-7.69-6.95,6.95-7.69,7.69,6.95ZM356.94,161.71l-6.95,7.69-7.69-6.95,6.95-7.69,7.69,6.95ZM364.1,153.78l-6.95,7.69-7.69-6.95,6.95-7.69,7.69,6.95ZM371.27,145.85l-6.95,7.69-7.69-6.95,6.95-7.69,7.69,6.95ZM378.44,137.92l-6.95,7.69-7.69-6.95,6.95-7.69,7.69,6.95ZM385.6,129.99l-6.95,7.69-7.69-6.95,6.95-7.69,7.69,6.95ZM378.13,122.81l6.95-7.69,7.69,6.95-6.95,7.69-7.69-6.95ZM134.02,392.39l-6.95,7.69-7.69-6.95,6.95-7.69,7.69,6.95ZM141.18,384.46l-6.95,7.69-7.69-6.95,6.95-7.69,7.69,6.95ZM148.35,376.53l-6.95,7.69-7.69-6.95,6.95-7.69,7.69,6.95ZM155.52,368.6l-6.95,7.69-7.69-6.95,6.95-7.69,7.69,6.95ZM162.68,360.67l-6.95,7.69-7.69-6.95,6.95-7.69,7.69,6.95ZM169.85,352.74l-6.95,7.69-7.69-6.95,6.95-7.69,7.69,6.95ZM177.02,344.82l-6.95,7.69-7.69-6.95,6.95-7.69,7.69,6.95ZM184.18,336.89l-6.95,7.69-7.69-6.95,6.95-7.69,7.69,6.95ZM191.35,328.96l-6.95,7.69-7.69-6.95,6.95-7.69,7.69,6.95ZM198.51,321.03l-6.95,7.69-7.69-6.95,6.95-7.69,7.69,6.95ZM205.68,313.1l-6.95,7.69-7.69-6.95,6.95-7.69,7.69,6.95ZM212.85,305.18l-6.95,7.69-7.69-6.95,6.95-7.69,7.69,6.95ZM220.01,297.25l-6.95,7.69-7.69-6.95,6.95-7.69,7.69,6.95ZM227.18,289.32l-6.95,7.69-7.69-6.95,6.95-7.69,7.69,6.95ZM234.35,281.39l-6.95,7.69-7.69-6.95,6.95-7.69,7.69,6.95ZM241.51,273.46l-6.95,7.69-7.69-6.95,6.95-7.69,7.69,6.95ZM248.68,265.53l-6.95,7.69-7.69-6.95,6.95-7.69,7.69,6.95ZM255.85,257.61l-6.95,7.69-7.69-6.95,6.95-7.69,7.69,6.95ZM263.01,249.68l-6.95,7.69-7.69-6.95,6.95-7.69,7.69,6.95ZM270.18,241.75l-6.95,7.69-7.69-6.95,6.95-7.69,7.69,6.95ZM277.34,233.82l-6.95,7.69-7.69-6.95,6.95-7.69,7.69,6.95ZM284.51,225.89l-6.95,7.69-7.69-6.95,6.95-7.69,7.69,6.95ZM291.68,217.97l-6.95,7.69-7.69-6.95,6.95-7.69,7.69,6.95ZM298.84,210.04l-6.95,7.69-7.69-6.95,6.95-7.69,7.69,6.95ZM306.01,202.11l-6.95,7.69-7.69-6.95,6.95-7.69,7.69,6.95ZM313.18,194.18l-6.95,7.69-7.69-6.95,6.95-7.69,7.69,6.95ZM320.34,186.25l-6.95,7.69-7.69-6.95,6.95-7.69,7.69,6.95ZM327.51,178.33l-6.95,7.69-7.69-6.95,6.95-7.69,7.69,6.95ZM334.68,170.4l-6.95,7.69-7.69-6.95,6.95-7.69,7.69,6.95ZM341.84,162.47l-6.95,7.69-7.69-6.95,6.95-7.69,7.69,6.95ZM349.01,154.54l-6.95,7.69-7.69-6.95,6.95-7.69,7.69,6.95ZM356.17,146.61l-6.95,7.69-7.69-6.95,6.95-7.69,7.69,6.95ZM363.34,138.68l-6.95,7.69-7.69-6.95,6.95-7.69,7.69,6.95ZM370.51,130.76l-6.95,7.69-7.69-6.95,6.95-7.69,7.69,6.95ZM377.67,122.83l-6.95,7.69-7.69-6.95,6.95-7.69,7.69,6.95ZM370.2,115.64l6.95-7.69,7.69,6.95-6.95,7.69-7.69-6.95ZM126.09,385.22l-6.95,7.69-7.69-6.95,6.95-7.69,7.69,6.95ZM133.26,377.29l-6.95,7.69-7.69-6.95,6.95-7.69,7.69,6.95ZM140.42,369.36l-6.95,7.69-7.69-6.95,6.95-7.69,7.69,6.95ZM147.59,361.43l-6.95,7.69-7.69-6.95,6.95-7.69,7.69,6.95ZM154.75,353.51l-6.95,7.69-7.69-6.95,6.95-7.69,7.69,6.95ZM161.92,345.58l-6.95,7.69-7.69-6.95,6.95-7.69,7.69,6.95ZM169.09,337.65l-6.95,7.69-7.69-6.95,6.95-7.69,7.69,6.95ZM176.25,329.72l-6.95,7.69-7.69-6.95,6.95-7.69,7.69,6.95ZM183.42,321.79l-6.95,7.69-7.69-6.95,6.95-7.69,7.69,6.95ZM190.59,313.87l-6.95,7.69-7.69-6.95,6.95-7.69,7.69,6.95ZM197.75,305.94l-6.95,7.69-7.69-6.95,6.95-7.69,7.69,6.95ZM204.92,298.01l-6.95,7.69-7.69-6.95,6.95-7.69,7.69,6.95ZM212.09,290.08l-6.95,7.69-7.69-6.95,6.95-7.69,7.69,6.95ZM219.25,282.15l-6.95,7.69-7.69-6.95,6.95-7.69,7.69,6.95ZM226.42,274.22l-6.95,7.69-7.69-6.95,6.95-7.69,7.69,6.95ZM233.58,266.3l-6.95,7.69-7.69-6.95,6.95-7.69,7.69,6.95ZM240.75,258.37l-6.95,7.69-7.69-6.95,6.95-7.69,7.69,6.95ZM247.92,250.44l-6.95,7.69-7.69-6.95,6.95-7.69,7.69,6.95ZM255.08,242.51l-6.95,7.69-7.69-6.95,6.95-7.69,7.69,6.95ZM262.25,234.58l-6.95,7.69-7.69-6.95,6.95-7.69,7.69,6.95ZM269.42,226.66l-6.95,7.69-7.69-6.95,6.95-7.69,7.69,6.95ZM276.58,218.73l-6.95,7.69-7.69-6.95,6.95-7.69,7.69,6.95ZM283.75,210.8l-6.95,7.69-7.69-6.95,6.95-7.69,7.69,6.95ZM290.92,202.87l-6.95,7.69-7.69-6.95,6.95-7.69,7.69,6.95ZM298.08,194.94l-6.95,7.69-7.69-6.95,6.95-7.69,7.69,6.95ZM305.25,187.02l-6.95,7.69-7.69-6.95,6.95-7.69,7.69,6.95ZM312.41,179.09l-6.95,7.69-7.69-6.95,6.95-7.69,7.69,6.95ZM319.58,171.16l-6.95,7.69-7.69-6.95,6.95-7.69,7.69,6.95ZM326.75,163.23l-6.95,7.69-7.69-6.95,6.95-7.69,7.69,6.95ZM333.91,155.3l-6.95,7.69-7.69-6.95,6.95-7.69,7.69,6.95ZM341.08,147.37l-6.95,7.69-7.69-6.95,6.95-7.69,7.69,6.95ZM348.25,139.45l-6.95,7.69-7.69-6.95,6.95-7.69,7.69,6.95ZM355.41,131.52l-6.95,7.69-7.69-6.95,6.95-7.69,7.69,6.95ZM362.58,123.59l-6.95,7.69-7.69-6.95,6.95-7.69,7.69,6.95ZM369.75,115.66l-6.95,7.69-7.69-6.95,6.95-7.69,7.69,6.95ZM362.27,108.47l6.95-7.69,7.69,6.95-6.95,7.69-7.69-6.95ZM118.16,378.05l-6.95,7.69-7.69-6.95,6.95-7.69,7.69,6.95ZM125.33,370.12l-6.95,7.69-7.69-6.95,6.95-7.69,7.69,6.95ZM132.49,362.2l-6.95,7.69-7.69-6.95,6.95-7.69,7.69,6.95ZM139.66,354.27l-6.95,7.69-7.69-6.95,6.95-7.69,7.69,6.95ZM146.83,346.34l-6.95,7.69-7.69-6.95,6.95-7.69,7.69,6.95ZM153.99,338.41l-6.95,7.69-7.69-6.95,6.95-7.69,7.69,6.95ZM161.16,330.48l-6.95,7.69-7.69-6.95,6.95-7.69,7.69,6.95ZM168.33,322.56l-6.95,7.69-7.69-6.95,6.95-7.69,7.69,6.95ZM175.49,314.63l-6.95,7.69-7.69-6.95,6.95-7.69,7.69,6.95ZM182.66,306.7l-6.95,7.69-7.69-6.95,6.95-7.69,7.69,6.95ZM189.82,298.77l-6.95,7.69-7.69-6.95,6.95-7.69,7.69,6.95ZM196.99,290.84l-6.95,7.69-7.69-6.95,6.95-7.69,7.69,6.95ZM204.16,282.91l-6.95,7.69-7.69-6.95,6.95-7.69,7.69,6.95ZM211.32,274.99l-6.95,7.69-7.69-6.95,6.95-7.69,7.69,6.95ZM218.49,267.06l-6.95,7.69-7.69-6.95,6.95-7.69,7.69,6.95ZM225.66,259.13l-6.95,7.69-7.69-6.95,6.95-7.69,7.69,6.95ZM232.82,251.2l-6.95,7.69-7.69-6.95,6.95-7.69,7.69,6.95ZM239.99,243.27l-6.95,7.69-7.69-6.95,6.95-7.69,7.69,6.95ZM247.16,235.35l-6.95,7.69-7.69-6.95,6.95-7.69,7.69,6.95ZM254.32,227.42l-6.95,7.69-7.69-6.95,6.95-7.69,7.69,6.95ZM261.49,219.49l-6.95,7.69-7.69-6.95,6.95-7.69,7.69,6.95ZM268.65,211.56l-6.95,7.69-7.69-6.95,6.95-7.69,7.69,6.95ZM275.82,203.63l-6.95,7.69-7.69-6.95,6.95-7.69,7.69,6.95ZM282.99,195.71l-6.95,7.69-7.69-6.95,6.95-7.69,7.69,6.95ZM290.15,187.78l-6.95,7.69-7.69-6.95,6.95-7.69,7.69,6.95ZM297.32,179.85l-6.95,7.69-7.69-6.95,6.95-7.69,7.69,6.95ZM304.49,171.92l-6.95,7.69-7.69-6.95,6.95-7.69,7.69,6.95ZM311.65,163.99l-6.95,7.69-7.69-6.95,6.95-7.69,7.69,6.95ZM318.82,156.06l-6.95,7.69-7.69-6.95,6.95-7.69,7.69,6.95ZM325.99,148.14l-6.95,7.69-7.69-6.95,6.95-7.69,7.69,6.95ZM333.15,140.21l-6.95,7.69-7.69-6.95,6.95-7.69,7.69,6.95ZM340.32,132.28l-6.95,7.69-7.69-6.95,6.95-7.69,7.69,6.95ZM347.48,124.35l-6.95,7.69-7.69-6.95,6.95-7.69,7.69,6.95ZM354.65,116.42l-6.95,7.69-7.69-6.95,6.95-7.69,7.69,6.95ZM361.82,108.5l-6.95,7.69-7.69-6.95,6.95-7.69,7.69,6.95ZM354.34,101.31l6.95-7.69,7.69,6.95-6.95,7.69-7.69-6.95ZM110.23,370.89l-6.95,7.69-7.69-6.95,6.95-7.69,7.69,6.95ZM117.4,362.96l-6.95,7.69-7.69-6.95,6.95-7.69,7.69,6.95ZM124.57,355.03l-6.95,7.69-7.69-6.95,6.95-7.69,7.69,6.95ZM131.73,347.1l-6.95,7.69-7.69-6.95,6.95-7.69,7.69,6.95ZM138.9,339.17l-6.95,7.69-7.69-6.95,6.95-7.69,7.69,6.95ZM146.06,331.25l-6.95,7.69-7.69-6.95,6.95-7.69,7.69,6.95ZM153.23,323.32l-6.95,7.69-7.69-6.95,6.95-7.69,7.69,6.95ZM160.4,315.39l-6.95,7.69-7.69-6.95,6.95-7.69,7.69,6.95ZM167.56,307.46l-6.95,7.69-7.69-6.95,6.95-7.69,7.69,6.95ZM174.73,299.53l-6.95,7.69-7.69-6.95,6.95-7.69,7.69,6.95ZM181.9,291.6l-6.95,7.69-7.69-6.95,6.95-7.69,7.69,6.95ZM189.06,283.68l-6.95,7.69-7.69-6.95,6.95-7.69,7.69,6.95ZM196.23,275.75l-6.95,7.69-7.69-6.95,6.95-7.69,7.69,6.95ZM203.4,267.82l-6.95,7.69-7.69-6.95,6.95-7.69,7.69,6.95ZM210.56,259.89l-6.95,7.69-7.69-6.95,6.95-7.69,7.69,6.95ZM217.73,251.96l-6.95,7.69-7.69-6.95,6.95-7.69,7.69,6.95ZM224.89,244.04l-6.95,7.69-7.69-6.95,6.95-7.69,7.69,6.95ZM232.06,236.11l-6.95,7.69-7.69-6.95,6.95-7.69,7.69,6.95ZM239.23,228.18l-6.95,7.69-7.69-6.95,6.95-7.69,7.69,6.95ZM246.39,220.25l-6.95,7.69-7.69-6.95,6.95-7.69,7.69,6.95ZM253.56,212.32l-6.95,7.69-7.69-6.95,6.95-7.69,7.69,6.95ZM260.73,204.4l-6.95,7.69-7.69-6.95,6.95-7.69,7.69,6.95ZM267.89,196.47l-6.95,7.69-7.69-6.95,6.95-7.69,7.69,6.95ZM275.06,188.54l-6.95,7.69-7.69-6.95,6.95-7.69,7.69,6.95ZM282.23,180.61l-6.95,7.69-7.69-6.95,6.95-7.69,7.69,6.95ZM289.39,172.68l-6.95,7.69-7.69-6.95,6.95-7.69,7.69,6.95ZM296.56,164.75l-6.95,7.69-7.69-6.95,6.95-7.69,7.69,6.95ZM303.72,156.83l-6.95,7.69-7.69-6.95,6.95-7.69,7.69,6.95ZM310.89,148.9l-6.95,7.69-7.69-6.95,6.95-7.69,7.69,6.95ZM318.06,140.97l-6.95,7.69-7.69-6.95,6.95-7.69,7.69,6.95ZM325.22,133.04l-6.95,7.69-7.69-6.95,6.95-7.69,7.69,6.95ZM332.39,125.11l-6.95,7.69-7.69-6.95,6.95-7.69,7.69,6.95ZM339.56,117.19l-6.95,7.69-7.69-6.95,6.95-7.69,7.69,6.95ZM346.72,109.26l-6.95,7.69-7.69-6.95,6.95-7.69,7.69,6.95ZM353.89,101.33l-6.95,7.69-7.69-6.95,6.95-7.69,7.69,6.95ZM346.41,94.14l6.95-7.69,7.69,6.95-6.95,7.69-7.69-6.95ZM102.3,363.72l-6.95,7.69-7.69-6.95,6.95-7.69,7.69,6.95ZM109.47,355.79l-6.95,7.69-7.69-6.95,6.95-7.69,7.69,6.95ZM116.64,347.86l-6.95,7.69-7.69-6.95,6.95-7.69,7.69,6.95ZM123.8,339.94l-6.95,7.69-7.69-6.95,6.95-7.69,7.69,6.95ZM130.97,332.01l-6.95,7.69-7.69-6.95,6.95-7.69,7.69,6.95ZM138.14,324.08l-6.95,7.69-7.69-6.95,6.95-7.69,7.69,6.95ZM145.3,316.15l-6.95,7.69-7.69-6.95,6.95-7.69,7.69,6.95ZM152.47,308.22l-6.95,7.69-7.69-6.95,6.95-7.69,7.69,6.95ZM159.64,300.3l-6.95,7.69-7.69-6.95,6.95-7.69,7.69,6.95ZM166.8,292.37l-6.95,7.69-7.69-6.95,6.95-7.69,7.69,6.95ZM173.97,284.44l-6.95,7.69-7.69-6.95,6.95-7.69,7.69,6.95ZM181.13,276.51l-6.95,7.69-7.69-6.95,6.95-7.69,7.69,6.95ZM188.3,268.58l-6.95,7.69-7.69-6.95,6.95-7.69,7.69,6.95ZM195.47,260.65l-6.95,7.69-7.69-6.95,6.95-7.69,7.69,6.95ZM202.63,252.73l-6.95,7.69-7.69-6.95,6.95-7.69,7.69,6.95ZM209.8,244.8l-6.95,7.69-7.69-6.95,6.95-7.69,7.69,6.95ZM216.97,236.87l-6.95,7.69-7.69-6.95,6.95-7.69,7.69,6.95ZM224.13,228.94l-6.95,7.69-7.69-6.95,6.95-7.69,7.69,6.95ZM231.3,221.01l-6.95,7.69-7.69-6.95,6.95-7.69,7.69,6.95ZM238.47,213.09l-6.95,7.69-7.69-6.95,6.95-7.69,7.69,6.95ZM245.63,205.16l-6.95,7.69-7.69-6.95,6.95-7.69,7.69,6.95ZM252.8,197.23l-6.95,7.69-7.69-6.95,6.95-7.69,7.69,6.95ZM259.96,189.3l-6.95,7.69-7.69-6.95,6.95-7.69,7.69,6.95ZM267.13,181.37l-6.95,7.69-7.69-6.95,6.95-7.69,7.69,6.95ZM274.3,173.44l-6.95,7.69-7.69-6.95,6.95-7.69,7.69,6.95ZM281.46,165.52l-6.95,7.69-7.69-6.95,6.95-7.69,7.69,6.95ZM288.63,157.59l-6.95,7.69-7.69-6.95,6.95-7.69,7.69,6.95ZM295.8,149.66l-6.95,7.69-7.69-6.95,6.95-7.69,7.69,6.95ZM302.96,141.73l-6.95,7.69-7.69-6.95,6.95-7.69,7.69,6.95ZM310.13,133.8l-6.95,7.69-7.69-6.95,6.95-7.69,7.69,6.95ZM317.3,125.88l-6.95,7.69-7.69-6.95,6.95-7.69,7.69,6.95ZM324.46,117.95l-6.95,7.69-7.69-6.95,6.95-7.69,7.69,6.95ZM331.63,110.02l-6.95,7.69-7.69-6.95,6.95-7.69,7.69,6.95ZM338.79,102.09l-6.95,7.69-7.69-6.95,6.95-7.69,7.69,6.95ZM345.96,94.16l-6.95,7.69-7.69-6.95,6.95-7.69,7.69,6.95ZM338.49,86.97l6.95-7.69,7.69,6.95-6.95,7.69-7.69-6.95ZM94.38,356.55l-6.95,7.69-7.69-6.95,6.95-7.69,7.69,6.95ZM101.54,348.63l-6.95,7.69-7.69-6.95,6.95-7.69,7.69,6.95ZM108.71,340.7l-6.95,7.69-7.69-6.95,6.95-7.69,7.69,6.95ZM115.88,332.77l-6.95,7.69-7.69-6.95,6.95-7.69,7.69,6.95ZM123.04,324.84l-6.95,7.69-7.69-6.95,6.95-7.69,7.69,6.95ZM130.21,316.91l-6.95,7.69-7.69-6.95,6.95-7.69,7.69,6.95ZM137.37,308.98l-6.95,7.69-7.69-6.95,6.95-7.69,7.69,6.95ZM144.54,301.06l-6.95,7.69-7.69-6.95,6.95-7.69,7.69,6.95ZM151.71,293.13l-6.95,7.69-7.69-6.95,6.95-7.69,7.69,6.95ZM158.87,285.2l-6.95,7.69-7.69-6.95,6.95-7.69,7.69,6.95ZM166.04,277.27l-6.95,7.69-7.69-6.95,6.95-7.69,7.69,6.95ZM173.21,269.34l-6.95,7.69-7.69-6.95,6.95-7.69,7.69,6.95ZM180.37,261.42l-6.95,7.69-7.69-6.95,6.95-7.69,7.69,6.95ZM187.54,253.49l-6.95,7.69-7.69-6.95,6.95-7.69,7.69,6.95ZM194.71,245.56l-6.95,7.69-7.69-6.95,6.95-7.69,7.69,6.95ZM201.87,237.63l-6.95,7.69-7.69-6.95,6.95-7.69,7.69,6.95ZM209.04,229.7l-6.95,7.69-7.69-6.95,6.95-7.69,7.69,6.95ZM216.2,221.77l-6.95,7.69-7.69-6.95,6.95-7.69,7.69,6.95ZM223.37,213.85l-6.95,7.69-7.69-6.95,6.95-7.69,7.69,6.95ZM230.54,205.92l-6.95,7.69-7.69-6.95,6.95-7.69,7.69,6.95ZM237.7,197.99l-6.95,7.69-7.69-6.95,6.95-7.69,7.69,6.95ZM244.87,190.06l-6.95,7.69-7.69-6.95,6.95-7.69,7.69,6.95ZM252.04,182.13l-6.95,7.69-7.69-6.95,6.95-7.69,7.69,6.95ZM259.2,174.21l-6.95,7.69-7.69-6.95,6.95-7.69,7.69,6.95ZM266.37,166.28l-6.95,7.69-7.69-6.95,6.95-7.69,7.69,6.95ZM273.54,158.35l-6.95,7.69-7.69-6.95,6.95-7.69,7.69,6.95ZM280.7,150.42l-6.95,7.69-7.69-6.95,6.95-7.69,7.69,6.95ZM287.87,142.49l-6.95,7.69-7.69-6.95,6.95-7.69,7.69,6.95ZM295.03,134.57l-6.95,7.69-7.69-6.95,6.95-7.69,7.69,6.95ZM302.2,126.64l-6.95,7.69-7.69-6.95,6.95-7.69,7.69,6.95ZM309.37,118.71l-6.95,7.69-7.69-6.95,6.95-7.69,7.69,6.95ZM316.53,110.78l-6.95,7.69-7.69-6.95,6.95-7.69,7.69,6.95ZM323.7,102.85l-6.95,7.69-7.69-6.95,6.95-7.69,7.69,6.95ZM330.87,94.92l-6.95,7.69-7.69-6.95,6.95-7.69,7.69,6.95ZM338.03,87l-6.95,7.69-7.69-6.95,6.95-7.69,7.69,6.95ZM330.56,79.81l6.95-7.69,7.69,6.95-6.95,7.69-7.69-6.95ZM86.45,349.39l-6.95,7.69-7.69-6.95,6.95-7.69,7.69,6.95ZM93.61,341.46l-6.95,7.69-7.69-6.95,6.95-7.69,7.69,6.95ZM100.78,333.53l-6.95,7.69-7.69-6.95,6.95-7.69,7.69,6.95ZM107.95,325.6l-6.95,7.69-7.69-6.95,6.95-7.69,7.69,6.95ZM115.11,317.67l-6.95,7.69-7.69-6.95,6.95-7.69,7.69,6.95ZM122.28,309.75l-6.95,7.69-7.69-6.95,6.95-7.69,7.69,6.95ZM129.45,301.82l-6.95,7.69-7.69-6.95,6.95-7.69,7.69,6.95ZM136.61,293.89l-6.95,7.69-7.69-6.95,6.95-7.69,7.69,6.95ZM143.78,285.96l-6.95,7.69-7.69-6.95,6.95-7.69,7.69,6.95ZM150.95,278.03l-6.95,7.69-7.69-6.95,6.95-7.69,7.69,6.95ZM158.11,270.11l-6.95,7.69-7.69-6.95,6.95-7.69,7.69,6.95ZM165.28,262.18l-6.95,7.69-7.69-6.95,6.95-7.69,7.69,6.95ZM172.44,254.25l-6.95,7.69-7.69-6.95,6.95-7.69,7.69,6.95ZM179.61,246.32l-6.95,7.69-7.69-6.95,6.95-7.69,7.69,6.95ZM186.78,238.39l-6.95,7.69-7.69-6.95,6.95-7.69,7.69,6.95ZM193.94,230.47l-6.95,7.69-7.69-6.95,6.95-7.69,7.69,6.95ZM201.11,222.54l-6.95,7.69-7.69-6.95,6.95-7.69,7.69,6.95ZM208.28,214.61l-6.95,7.69-7.69-6.95,6.95-7.69,7.69,6.95ZM215.44,206.68l-6.95,7.69-7.69-6.95,6.95-7.69,7.69,6.95ZM222.61,198.75l-6.95,7.69-7.69-6.95,6.95-7.69,7.69,6.95ZM229.78,190.82l-6.95,7.69-7.69-6.95,6.95-7.69,7.69,6.95ZM236.94,182.9l-6.95,7.69-7.69-6.95,6.95-7.69,7.69,6.95ZM244.11,174.97l-6.95,7.69-7.69-6.95,6.95-7.69,7.69,6.95ZM251.27,167.04l-6.95,7.69-7.69-6.95,6.95-7.69,7.69,6.95ZM258.44,159.11l-6.95,7.69-7.69-6.95,6.95-7.69,7.69,6.95ZM265.61,151.18l-6.95,7.69-7.69-6.95,6.95-7.69,7.69,6.95ZM272.77,143.26l-6.95,7.69-7.69-6.95,6.95-7.69,7.69,6.95ZM279.94,135.33l-6.95,7.69-7.69-6.95,6.95-7.69,7.69,6.95ZM287.11,127.4l-6.95,7.69-7.69-6.95,6.95-7.69,7.69,6.95ZM294.27,119.47l-6.95,7.69-7.69-6.95,6.95-7.69,7.69,6.95ZM301.44,111.54l-6.95,7.69-7.69-6.95,6.95-7.69,7.69,6.95ZM308.61,103.61l-6.95,7.69-7.69-6.95,6.95-7.69,7.69,6.95ZM315.77,95.69l-6.95,7.69-7.69-6.95,6.95-7.69,7.69,6.95ZM322.94,87.76l-6.95,7.69-7.69-6.95,6.95-7.69,7.69,6.95ZM330.1,79.83l-6.95,7.69-7.69-6.95,6.95-7.69,7.69,6.95ZM322.63,72.64l6.95-7.69,7.69,6.95-6.95,7.69-7.69-6.95ZM78.52,342.22l-6.95,7.69-7.69-6.95,6.95-7.69,7.69,6.95ZM85.69,334.29l-6.95,7.69-7.69-6.95,6.95-7.69,7.69,6.95ZM92.85,326.36l-6.95,7.69-7.69-6.95,6.95-7.69,7.69,6.95ZM100.02,318.44l-6.95,7.69-7.69-6.95,6.95-7.69,7.69,6.95ZM107.19,310.51l-6.95,7.69-7.69-6.95,6.95-7.69,7.69,6.95ZM114.35,302.58l-6.95,7.69-7.69-6.95,6.95-7.69,7.69,6.95ZM121.52,294.65l-6.95,7.69-7.69-6.95,6.95-7.69,7.69,6.95ZM128.68,286.72l-6.95,7.69-7.69-6.95,6.95-7.69,7.69,6.95ZM135.85,278.8l-6.95,7.69-7.69-6.95,6.95-7.69,7.69,6.95ZM143.02,270.87l-6.95,7.69-7.69-6.95,6.95-7.69,7.69,6.95ZM150.18,262.94l-6.95,7.69-7.69-6.95,6.95-7.69,7.69,6.95ZM157.35,255.01l-6.95,7.69-7.69-6.95,6.95-7.69,7.69,6.95ZM164.52,247.08l-6.95,7.69-7.69-6.95,6.95-7.69,7.69,6.95ZM171.68,239.15l-6.95,7.69-7.69-6.95,6.95-7.69,7.69,6.95ZM178.85,231.23l-6.95,7.69-7.69-6.95,6.95-7.69,7.69,6.95ZM186.02,223.3l-6.95,7.69-7.69-6.95,6.95-7.69,7.69,6.95ZM193.18,215.37l-6.95,7.69-7.69-6.95,6.95-7.69,7.69,6.95ZM200.35,207.44l-6.95,7.69-7.69-6.95,6.95-7.69,7.69,6.95ZM207.51,199.51l-6.95,7.69-7.69-6.95,6.95-7.69,7.69,6.95ZM214.68,191.59l-6.95,7.69-7.69-6.95,6.95-7.69,7.69,6.95ZM221.85,183.66l-6.95,7.69-7.69-6.95,6.95-7.69,7.69,6.95ZM229.01,175.73l-6.95,7.69-7.69-6.95,6.95-7.69,7.69,6.95ZM236.18,167.8l-6.95,7.69-7.69-6.95,6.95-7.69,7.69,6.95ZM243.35,159.87l-6.95,7.69-7.69-6.95,6.95-7.69,7.69,6.95ZM250.51,151.95l-6.95,7.69-7.69-6.95,6.95-7.69,7.69,6.95ZM257.68,144.02l-6.95,7.69-7.69-6.95,6.95-7.69,7.69,6.95ZM264.85,136.09l-6.95,7.69-7.69-6.95,6.95-7.69,7.69,6.95ZM272.01,128.16l-6.95,7.69-7.69-6.95,6.95-7.69,7.69,6.95ZM279.18,120.23l-6.95,7.69-7.69-6.95,6.95-7.69,7.69,6.95ZM286.34,112.3l-6.95,7.69-7.69-6.95,6.95-7.69,7.69,6.95ZM293.51,104.38l-6.95,7.69-7.69-6.95,6.95-7.69,7.69,6.95ZM300.68,96.45l-6.95,7.69-7.69-6.95,6.95-7.69,7.69,6.95ZM307.84,88.52l-6.95,7.69-7.69-6.95,6.95-7.69,7.69,6.95ZM315.01,80.59l-6.95,7.69-7.69-6.95,6.95-7.69,7.69,6.95ZM322.18,72.66l-6.95,7.69-7.69-6.95,6.95-7.69,7.69,6.95ZM314.7,65.47l6.95-7.69,7.69,6.95-6.95,7.69-7.69-6.95ZM70.59,335.05l-6.95,7.69-7.69-6.95,6.95-7.69,7.69,6.95ZM77.76,327.13l-6.95,7.69-7.69-6.95,6.95-7.69,7.69,6.95ZM84.92,319.2l-6.95,7.69-7.69-6.95,6.95-7.69,7.69,6.95ZM92.09,311.27l-6.95,7.69-7.69-6.95,6.95-7.69,7.69,6.95ZM99.26,303.34l-6.95,7.69-7.69-6.95,6.95-7.69,7.69,6.95ZM106.42,295.41l-6.95,7.69-7.69-6.95,6.95-7.69,7.69,6.95ZM113.59,287.49l-6.95,7.69-7.69-6.95,6.95-7.69,7.69,6.95ZM120.76,279.56l-6.95,7.69-7.69-6.95,6.95-7.69,7.69,6.95ZM127.92,271.63l-6.95,7.69-7.69-6.95,6.95-7.69,7.69,6.95ZM135.09,263.7l-6.95,7.69-7.69-6.95,6.95-7.69,7.69,6.95ZM142.26,255.77l-6.95,7.69-7.69-6.95,6.95-7.69,7.69,6.95ZM149.42,247.84l-6.95,7.69-7.69-6.95,6.95-7.69,7.69,6.95ZM156.59,239.92l-6.95,7.69-7.69-6.95,6.95-7.69,7.69,6.95ZM163.76,231.99l-6.95,7.69-7.69-6.95,6.95-7.69,7.69,6.95ZM170.92,224.06l-6.95,7.69-7.69-6.95,6.95-7.69,7.69,6.95ZM178.09,216.13l-6.95,7.69-7.69-6.95,6.95-7.69,7.69,6.95ZM185.25,208.2l-6.95,7.69-7.69-6.95,6.95-7.69,7.69,6.95ZM192.42,200.28l-6.95,7.69-7.69-6.95,6.95-7.69,7.69,6.95ZM199.59,192.35l-6.95,7.69-7.69-6.95,6.95-7.69,7.69,6.95ZM206.75,184.42l-6.95,7.69-7.69-6.95,6.95-7.69,7.69,6.95ZM213.92,176.49l-6.95,7.69-7.69-6.95,6.95-7.69,7.69,6.95ZM221.09,168.56l-6.95,7.69-7.69-6.95,6.95-7.69,7.69,6.95ZM228.25,160.64l-6.95,7.69-7.69-6.95,6.95-7.69,7.69,6.95ZM235.42,152.71l-6.95,7.69-7.69-6.95,6.95-7.69,7.69,6.95ZM242.58,144.78l-6.95,7.69-7.69-6.95,6.95-7.69,7.69,6.95ZM249.75,136.85l-6.95,7.69-7.69-6.95,6.95-7.69,7.69,6.95ZM256.92,128.92l-6.95,7.69-7.69-6.95,6.95-7.69,7.69,6.95ZM264.08,120.99l-6.95,7.69-7.69-6.95,6.95-7.69,7.69,6.95ZM271.25,113.07l-6.95,7.69-7.69-6.95,6.95-7.69,7.69,6.95ZM278.42,105.14l-6.95,7.69-7.69-6.95,6.95-7.69,7.69,6.95ZM285.58,97.21l-6.95,7.69-7.69-6.95,6.95-7.69,7.69,6.95ZM292.75,89.28l-6.95,7.69-7.69-6.95,6.95-7.69,7.69,6.95ZM299.92,81.35l-6.95,7.69-7.69-6.95,6.95-7.69,7.69,6.95ZM307.08,73.43l-6.95,7.69-7.69-6.95,6.95-7.69,7.69,6.95ZM314.25,65.5l-6.95,7.69-7.69-6.95,6.95-7.69,7.69,6.95ZM306.77,58.31l6.95-7.69,7.69,6.95-6.95,7.69-7.69-6.95ZM62.66,327.89l-6.95,7.69-7.69-6.95,6.95-7.69,7.69,6.95ZM69.83,319.96l-6.95,7.69-7.69-6.95,6.95-7.69,7.69,6.95ZM77,312.03l-6.95,7.69-7.69-6.95,6.95-7.69,7.69,6.95ZM84.16,304.1l-6.95,7.69-7.69-6.95,6.95-7.69,7.69,6.95ZM91.33,296.18l-6.95,7.69-7.69-6.95,6.95-7.69,7.69,6.95ZM98.5,288.25l-6.95,7.69-7.69-6.95,6.95-7.69,7.69,6.95ZM105.66,280.32l-6.95,7.69-7.69-6.95,6.95-7.69,7.69,6.95ZM112.83,272.39l-6.95,7.69-7.69-6.95,6.95-7.69,7.69,6.95ZM119.99,264.46l-6.95,7.69-7.69-6.95,6.95-7.69,7.69,6.95ZM127.16,256.53l-6.95,7.69-7.69-6.95,6.95-7.69,7.69,6.95ZM134.33,248.61l-6.95,7.69-7.69-6.95,6.95-7.69,7.69,6.95ZM141.49,240.68l-6.95,7.69-7.69-6.95,6.95-7.69,7.69,6.95ZM148.66,232.75l-6.95,7.69-7.69-6.95,6.95-7.69,7.69,6.95ZM155.83,224.82l-6.95,7.69-7.69-6.95,6.95-7.69,7.69,6.95ZM162.99,216.89l-6.95,7.69-7.69-6.95,6.95-7.69,7.69,6.95ZM170.16,208.97l-6.95,7.69-7.69-6.95,6.95-7.69,7.69,6.95ZM177.33,201.04l-6.95,7.69-7.69-6.95,6.95-7.69,7.69,6.95ZM184.49,193.11l-6.95,7.69-7.69-6.95,6.95-7.69,7.69,6.95ZM191.66,185.18l-6.95,7.69-7.69-6.95,6.95-7.69,7.69,6.95ZM198.82,177.25l-6.95,7.69-7.69-6.95,6.95-7.69,7.69,6.95ZM205.99,169.33l-6.95,7.69-7.69-6.95,6.95-7.69,7.69,6.95ZM213.16,161.4l-6.95,7.69-7.69-6.95,6.95-7.69,7.69,6.95ZM220.32,153.47l-6.95,7.69-7.69-6.95,6.95-7.69,7.69,6.95ZM227.49,145.54l-6.95,7.69-7.69-6.95,6.95-7.69,7.69,6.95ZM234.66,137.61l-6.95,7.69-7.69-6.95,6.95-7.69,7.69,6.95ZM241.82,129.68l-6.95,7.69-7.69-6.95,6.95-7.69,7.69,6.95ZM248.99,121.76l-6.95,7.69-7.69-6.95,6.95-7.69,7.69,6.95ZM256.16,113.83l-6.95,7.69-7.69-6.95,6.95-7.69,7.69,6.95ZM263.32,105.9l-6.95,7.69-7.69-6.95,6.95-7.69,7.69,6.95ZM270.49,97.97l-6.95,7.69-7.69-6.95,6.95-7.69,7.69,6.95ZM277.65,90.04l-6.95,7.69-7.69-6.95,6.95-7.69,7.69,6.95ZM284.82,82.12l-6.95,7.69-7.69-6.95,6.95-7.69,7.69,6.95ZM291.99,74.19l-6.95,7.69-7.69-6.95,6.95-7.69,7.69,6.95ZM299.15,66.26l-6.95,7.69-7.69-6.95,6.95-7.69,7.69,6.95ZM306.32,58.33l-6.95,7.69-7.69-6.95,6.95-7.69,7.69,6.95ZM298.84,51.14l6.95-7.69,7.69,6.95-6.95,7.69-7.69-6.95ZM54.74,320.72l-6.95,7.69-7.69-6.95,6.95-7.69,7.69,6.95ZM61.9,312.79l-6.95,7.69-7.69-6.95,6.95-7.69,7.69,6.95ZM69.07,304.87l-6.95,7.69-7.69-6.95,6.95-7.69,7.69,6.95ZM76.23,296.94l-6.95,7.69-7.69-6.95,6.95-7.69,7.69,6.95ZM83.4,289.01l-6.95,7.69-7.69-6.95,6.95-7.69,7.69,6.95ZM90.57,281.08l-6.95,7.69-7.69-6.95,6.95-7.69,7.69,6.95ZM97.73,273.15l-6.95,7.69-7.69-6.95,6.95-7.69,7.69,6.95ZM104.9,265.22l-6.95,7.69-7.69-6.95,6.95-7.69,7.69,6.95ZM112.07,257.3l-6.95,7.69-7.69-6.95,6.95-7.69,7.69,6.95ZM119.23,249.37l-6.95,7.69-7.69-6.95,6.95-7.69,7.69,6.95ZM126.4,241.44l-6.95,7.69-7.69-6.95,6.95-7.69,7.69,6.95ZM133.57,233.51l-6.95,7.69-7.69-6.95,6.95-7.69,7.69,6.95ZM140.73,225.58l-6.95,7.69-7.69-6.95,6.95-7.69,7.69,6.95ZM147.9,217.66l-6.95,7.69-7.69-6.95,6.95-7.69,7.69,6.95ZM155.06,209.73l-6.95,7.69-7.69-6.95,6.95-7.69,7.69,6.95ZM162.23,201.8l-6.95,7.69-7.69-6.95,6.95-7.69,7.69,6.95ZM169.4,193.87l-6.95,7.69-7.69-6.95,6.95-7.69,7.69,6.95ZM176.56,185.94l-6.95,7.69-7.69-6.95,6.95-7.69,7.69,6.95ZM183.73,178.01l-6.95,7.69-7.69-6.95,6.95-7.69,7.69,6.95ZM190.9,170.09l-6.95,7.69-7.69-6.95,6.95-7.69,7.69,6.95ZM198.06,162.16l-6.95,7.69-7.69-6.95,6.95-7.69,7.69,6.95ZM205.23,154.23l-6.95,7.69-7.69-6.95,6.95-7.69,7.69,6.95ZM212.4,146.3l-6.95,7.69-7.69-6.95,6.95-7.69,7.69,6.95ZM219.56,138.37l-6.95,7.69-7.69-6.95,6.95-7.69,7.69,6.95ZM226.73,130.45l-6.95,7.69-7.69-6.95,6.95-7.69,7.69,6.95ZM233.89,122.52l-6.95,7.69-7.69-6.95,6.95-7.69,7.69,6.95ZM241.06,114.59l-6.95,7.69-7.69-6.95,6.95-7.69,7.69,6.95ZM248.23,106.66l-6.95,7.69-7.69-6.95,6.95-7.69,7.69,6.95ZM255.39,98.73l-6.95,7.69-7.69-6.95,6.95-7.69,7.69,6.95ZM262.56,90.81l-6.95,7.69-7.69-6.95,6.95-7.69,7.69,6.95ZM269.73,82.88l-6.95,7.69-7.69-6.95,6.95-7.69,7.69,6.95ZM276.89,74.95l-6.95,7.69-7.69-6.95,6.95-7.69,7.69,6.95ZM284.06,67.02l-6.95,7.69-7.69-6.95,6.95-7.69,7.69,6.95ZM291.23,59.09l-6.95,7.69-7.69-6.95,6.95-7.69,7.69,6.95ZM298.39,51.16l-6.95,7.69-7.69-6.95,6.95-7.69,7.69,6.95ZM290.92,43.98l6.95-7.69,7.69,6.95-6.95,7.69-7.69-6.95ZM46.81,313.56l-6.95,7.69-7.69-6.95,6.95-7.69,7.69,6.95ZM53.97,305.63l-6.95,7.69-7.69-6.95,6.95-7.69,7.69,6.95ZM61.14,297.7l-6.95,7.69-7.69-6.95,6.95-7.69,7.69,6.95ZM68.31,289.77l-6.95,7.69-7.69-6.95,6.95-7.69,7.69,6.95ZM75.47,281.84l-6.95,7.69-7.69-6.95,6.95-7.69,7.69,6.95ZM82.64,273.91l-6.95,7.69-7.69-6.95,6.95-7.69,7.69,6.95ZM89.81,265.99l-6.95,7.69-7.69-6.95,6.95-7.69,7.69,6.95ZM96.97,258.06l-6.95,7.69-7.69-6.95,6.95-7.69,7.69,6.95ZM104.14,250.13l-6.95,7.69-7.69-6.95,6.95-7.69,7.69,6.95ZM111.3,242.2l-6.95,7.69-7.69-6.95,6.95-7.69,7.69,6.95ZM118.47,234.27l-6.95,7.69-7.69-6.95,6.95-7.69,7.69,6.95ZM125.64,226.35l-6.95,7.69-7.69-6.95,6.95-7.69,7.69,6.95ZM132.8,218.42l-6.95,7.69-7.69-6.95,6.95-7.69,7.69,6.95ZM139.97,210.49l-6.95,7.69-7.69-6.95,6.95-7.69,7.69,6.95ZM147.14,202.56l-6.95,7.69-7.69-6.95,6.95-7.69,7.69,6.95ZM154.3,194.63l-6.95,7.69-7.69-6.95,6.95-7.69,7.69,6.95ZM161.47,186.7l-6.95,7.69-7.69-6.95,6.95-7.69,7.69,6.95ZM168.64,178.78l-6.95,7.69-7.69-6.95,6.95-7.69,7.69,6.95ZM175.8,170.85l-6.95,7.69-7.69-6.95,6.95-7.69,7.69,6.95ZM182.97,162.92l-6.95,7.69-7.69-6.95,6.95-7.69,7.69,6.95ZM190.13,154.99l-6.95,7.69-7.69-6.95,6.95-7.69,7.69,6.95ZM197.3,147.06l-6.95,7.69-7.69-6.95,6.95-7.69,7.69,6.95ZM204.47,139.14l-6.95,7.69-7.69-6.95,6.95-7.69,7.69,6.95ZM211.63,131.21l-6.95,7.69-7.69-6.95,6.95-7.69,7.69,6.95ZM218.8,123.28l-6.95,7.69-7.69-6.95,6.95-7.69,7.69,6.95ZM225.97,115.35l-6.95,7.69-7.69-6.95,6.95-7.69,7.69,6.95ZM233.13,107.42l-6.95,7.69-7.69-6.95,6.95-7.69,7.69,6.95ZM240.3,99.5l-6.95,7.69-7.69-6.95,6.95-7.69,7.69,6.95ZM247.47,91.57l-6.95,7.69-7.69-6.95,6.95-7.69,7.69,6.95ZM254.63,83.64l-6.95,7.69-7.69-6.95,6.95-7.69,7.69,6.95ZM261.8,75.71l-6.95,7.69-7.69-6.95,6.95-7.69,7.69,6.95ZM268.96,67.78l-6.95,7.69-7.69-6.95,6.95-7.69,7.69,6.95ZM276.13,59.85l-6.95,7.69-7.69-6.95,6.95-7.69,7.69,6.95ZM283.3,51.93l-6.95,7.69-7.69-6.95,6.95-7.69,7.69,6.95ZM290.46,44l-6.95,7.69-7.69-6.95,6.95-7.69,7.69,6.95ZM282.99,36.81l6.95-7.69,7.69,6.95-6.95,7.69-7.69-6.95ZM38.88,306.39l-6.95,7.69-7.69-6.95,6.95-7.69,7.69,6.95ZM46.05,298.46l-6.95,7.69-7.69-6.95,6.95-7.69,7.69,6.95ZM53.21,290.53l-6.95,7.69-7.69-6.95,6.95-7.69,7.69,6.95ZM60.38,282.6l-6.95,7.69-7.69-6.95,6.95-7.69,7.69,6.95ZM67.55,274.68l-6.95,7.69-7.69-6.95,6.95-7.69,7.69,6.95ZM74.71,266.75l-6.95,7.69-7.69-6.95,6.95-7.69,7.69,6.95ZM81.88,258.82l-6.95,7.69-7.69-6.95,6.95-7.69,7.69,6.95ZM89.04,250.89l-6.95,7.69-7.69-6.95,6.95-7.69,7.69,6.95ZM96.21,242.96l-6.95,7.69-7.69-6.95,6.95-7.69,7.69,6.95ZM103.38,235.04l-6.95,7.69-7.69-6.95,6.95-7.69,7.69,6.95ZM110.54,227.11l-6.95,7.69-7.69-6.95,6.95-7.69,7.69,6.95ZM117.71,219.18l-6.95,7.69-7.69-6.95,6.95-7.69,7.69,6.95ZM124.88,211.25l-6.95,7.69-7.69-6.95,6.95-7.69,7.69,6.95ZM132.04,203.32l-6.95,7.69-7.69-6.95,6.95-7.69,7.69,6.95ZM139.21,195.39l-6.95,7.69-7.69-6.95,6.95-7.69,7.69,6.95ZM146.37,187.47l-6.95,7.69-7.69-6.95,6.95-7.69,7.69,6.95ZM153.54,179.54l-6.95,7.69-7.69-6.95,6.95-7.69,7.69,6.95ZM160.71,171.61l-6.95,7.69-7.69-6.95,6.95-7.69,7.69,6.95ZM167.87,163.68l-6.95,7.69-7.69-6.95,6.95-7.69,7.69,6.95ZM175.04,155.75l-6.95,7.69-7.69-6.95,6.95-7.69,7.69,6.95ZM182.21,147.83l-6.95,7.69-7.69-6.95,6.95-7.69,7.69,6.95ZM189.37,139.9l-6.95,7.69-7.69-6.95,6.95-7.69,7.69,6.95ZM196.54,131.97l-6.95,7.69-7.69-6.95,6.95-7.69,7.69,6.95ZM203.71,124.04l-6.95,7.69-7.69-6.95,6.95-7.69,7.69,6.95ZM210.87,116.11l-6.95,7.69-7.69-6.95,6.95-7.69,7.69,6.95ZM218.04,108.18l-6.95,7.69-7.69-6.95,6.95-7.69,7.69,6.95ZM225.2,100.26l-6.95,7.69-7.69-6.95,6.95-7.69,7.69,6.95ZM232.37,92.33l-6.95,7.69-7.69-6.95,6.95-7.69,7.69,6.95ZM239.54,84.4l-6.95,7.69-7.69-6.95,6.95-7.69,7.69,6.95ZM246.7,76.47l-6.95,7.69-7.69-6.95,6.95-7.69,7.69,6.95ZM253.87,68.54l-6.95,7.69-7.69-6.95,6.95-7.69,7.69,6.95ZM261.04,60.62l-6.95,7.69-7.69-6.95,6.95-7.69,7.69,6.95ZM268.2,52.69l-6.95,7.69-7.69-6.95,6.95-7.69,7.69,6.95ZM275.37,44.76l-6.95,7.69-7.69-6.95,6.95-7.69,7.69,6.95ZM282.54,36.83l-6.95,7.69-7.69-6.95,6.95-7.69,7.69,6.95ZM275.06,29.64l6.95-7.69,7.69,6.95-6.95,7.69-7.69-6.95ZM30.95,299.22l-6.95,7.69-7.69-6.95,6.95-7.69,7.69,6.95ZM38.12,291.29l-6.95,7.69-7.69-6.95,6.95-7.69,7.69,6.95ZM45.28,283.37l-6.95,7.69-7.69-6.95,6.95-7.69,7.69,6.95ZM52.45,275.44l-6.95,7.69-7.69-6.95,6.95-7.69,7.69,6.95ZM59.62,267.51l-6.95,7.69-7.69-6.95,6.95-7.69,7.69,6.95ZM66.78,259.58l-6.95,7.69-7.69-6.95,6.95-7.69,7.69,6.95ZM73.95,251.65l-6.95,7.69-7.69-6.95,6.95-7.69,7.69,6.95ZM81.12,243.73l-6.95,7.69-7.69-6.95,6.95-7.69,7.69,6.95ZM88.28,235.8l-6.95,7.69-7.69-6.95,6.95-7.69,7.69,6.95ZM95.45,227.87l-6.95,7.69-7.69-6.95,6.95-7.69,7.69,6.95ZM102.61,219.94l-6.95,7.69-7.69-6.95,6.95-7.69,7.69,6.95ZM109.78,212.01l-6.95,7.69-7.69-6.95,6.95-7.69,7.69,6.95ZM116.95,204.08l-6.95,7.69-7.69-6.95,6.95-7.69,7.69,6.95ZM124.11,196.16l-6.95,7.69-7.69-6.95,6.95-7.69,7.69,6.95ZM131.28,188.23l-6.95,7.69-7.69-6.95,6.95-7.69,7.69,6.95ZM138.45,180.3l-6.95,7.69-7.69-6.95,6.95-7.69,7.69,6.95ZM145.61,172.37l-6.95,7.69-7.69-6.95,6.95-7.69,7.69,6.95ZM152.78,164.44l-6.95,7.69-7.69-6.95,6.95-7.69,7.69,6.95ZM159.95,156.52l-6.95,7.69-7.69-6.95,6.95-7.69,7.69,6.95ZM167.11,148.59l-6.95,7.69-7.69-6.95,6.95-7.69,7.69,6.95ZM174.28,140.66l-6.95,7.69-7.69-6.95,6.95-7.69,7.69,6.95ZM181.44,132.73l-6.95,7.69-7.69-6.95,6.95-7.69,7.69,6.95ZM188.61,124.8l-6.95,7.69-7.69-6.95,6.95-7.69,7.69,6.95ZM195.78,116.87l-6.95,7.69-7.69-6.95,6.95-7.69,7.69,6.95ZM202.94,108.95l-6.95,7.69-7.69-6.95,6.95-7.69,7.69,6.95ZM210.11,101.02l-6.95,7.69-7.69-6.95,6.95-7.69,7.69,6.95ZM217.28,93.09l-6.95,7.69-7.69-6.95,6.95-7.69,7.69,6.95ZM224.44,85.16l-6.95,7.69-7.69-6.95,6.95-7.69,7.69,6.95ZM231.61,77.23l-6.95,7.69-7.69-6.95,6.95-7.69,7.69,6.95ZM238.78,69.31l-6.95,7.69-7.69-6.95,6.95-7.69,7.69,6.95ZM245.94,61.38l-6.95,7.69-7.69-6.95,6.95-7.69,7.69,6.95ZM253.11,53.45l-6.95,7.69-7.69-6.95,6.95-7.69,7.69,6.95ZM260.27,45.52l-6.95,7.69-7.69-6.95,6.95-7.69,7.69,6.95ZM267.44,37.59l-6.95,7.69-7.69-6.95,6.95-7.69,7.69,6.95ZM274.61,29.67l-6.95,7.69-7.69-6.95,6.95-7.69,7.69,6.95ZM267.13,22.48l6.95-7.69,7.69,6.95-6.95,7.69-7.69-6.95ZM23.02,292.06l-6.95,7.69-7.69-6.95,6.95-7.69,7.69,6.95ZM30.19,284.13l-6.95,7.69-7.69-6.95,6.95-7.69,7.69,6.95ZM37.36,276.2l-6.95,7.69-7.69-6.95,6.95-7.69,7.69,6.95ZM44.52,268.27l-6.95,7.69-7.69-6.95,6.95-7.69,7.69,6.95ZM51.69,260.34l-6.95,7.69-7.69-6.95,6.95-7.69,7.69,6.95ZM58.85,252.42l-6.95,7.69-7.69-6.95,6.95-7.69,7.69,6.95ZM66.02,244.49l-6.95,7.69-7.69-6.95,6.95-7.69,7.69,6.95ZM73.19,236.56l-6.95,7.69-7.69-6.95,6.95-7.69,7.69,6.95ZM80.35,228.63l-6.95,7.69-7.69-6.95,6.95-7.69,7.69,6.95ZM87.52,220.7l-6.95,7.69-7.69-6.95,6.95-7.69,7.69,6.95ZM94.69,212.77l-6.95,7.69-7.69-6.95,6.95-7.69,7.69,6.95ZM101.85,204.85l-6.95,7.69-7.69-6.95,6.95-7.69,7.69,6.95ZM109.02,196.92l-6.95,7.69-7.69-6.95,6.95-7.69,7.69,6.95ZM116.19,188.99l-6.95,7.69-7.69-6.95,6.95-7.69,7.69,6.95ZM123.35,181.06l-6.95,7.69-7.69-6.95,6.95-7.69,7.69,6.95ZM130.52,173.13l-6.95,7.69-7.69-6.95,6.95-7.69,7.69,6.95ZM137.68,165.21l-6.95,7.69-7.69-6.95,6.95-7.69,7.69,6.95ZM144.85,157.28l-6.95,7.69-7.69-6.95,6.95-7.69,7.69,6.95ZM152.02,149.35l-6.95,7.69-7.69-6.95,6.95-7.69,7.69,6.95ZM159.18,141.42l-6.95,7.69-7.69-6.95,6.95-7.69,7.69,6.95ZM166.35,133.49l-6.95,7.69-7.69-6.95,6.95-7.69,7.69,6.95ZM173.52,125.57l-6.95,7.69-7.69-6.95,6.95-7.69,7.69,6.95ZM180.68,117.64l-6.95,7.69-7.69-6.95,6.95-7.69,7.69,6.95ZM187.85,109.71l-6.95,7.69-7.69-6.95,6.95-7.69,7.69,6.95ZM195.02,101.78l-6.95,7.69-7.69-6.95,6.95-7.69,7.69,6.95ZM202.18,93.85l-6.95,7.69-7.69-6.95,6.95-7.69,7.69,6.95ZM209.35,85.92l-6.95,7.69-7.69-6.95,6.95-7.69,7.69,6.95ZM216.51,78l-6.95,7.69-7.69-6.95,6.95-7.69,7.69,6.95ZM223.68,70.07l-6.95,7.69-7.69-6.95,6.95-7.69,7.69,6.95ZM230.85,62.14l-6.95,7.69-7.69-6.95,6.95-7.69,7.69,6.95ZM238.01,54.21l-6.95,7.69-7.69-6.95,6.95-7.69,7.69,6.95ZM245.18,46.28l-6.95,7.69-7.69-6.95,6.95-7.69,7.69,6.95ZM252.35,38.36l-6.95,7.69-7.69-6.95,6.95-7.69,7.69,6.95ZM259.51,30.43l-6.95,7.69-7.69-6.95,6.95-7.69,7.69,6.95ZM266.68,22.5l-6.95,7.69-7.69-6.95,6.95-7.69,7.69,6.95ZM259.2,15.31l6.95-7.69,7.69,6.95-6.95,7.69-7.69-6.95ZM15.09,284.89l-6.95,7.69-7.69-6.95,6.95-7.69,7.69,6.95ZM22.26,276.96l-6.95,7.69-7.69-6.95,6.95-7.69,7.69,6.95ZM29.43,269.03l-6.95,7.69-7.69-6.95,6.95-7.69,7.69,6.95ZM36.59,261.11l-6.95,7.69-7.69-6.95,6.95-7.69,7.69,6.95ZM43.76,253.18l-6.95,7.69-7.69-6.95,6.95-7.69,7.69,6.95ZM50.93,245.25l-6.95,7.69-7.69-6.95,6.95-7.69,7.69,6.95ZM58.09,237.32l-6.95,7.69-7.69-6.95,6.95-7.69,7.69,6.95ZM65.26,229.39l-6.95,7.69-7.69-6.95,6.95-7.69,7.69,6.95ZM72.43,221.46l-6.95,7.69-7.69-6.95,6.95-7.69,7.69,6.95ZM79.59,213.54l-6.95,7.69-7.69-6.95,6.95-7.69,7.69,6.95ZM86.76,205.61l-6.95,7.69-7.69-6.95,6.95-7.69,7.69,6.95ZM93.92,197.68l-6.95,7.69-7.69-6.95,6.95-7.69,7.69,6.95ZM101.09,189.75l-6.95,7.69-7.69-6.95,6.95-7.69,7.69,6.95ZM108.26,181.82l-6.95,7.69-7.69-6.95,6.95-7.69,7.69,6.95ZM115.42,173.9l-6.95,7.69-7.69-6.95,6.95-7.69,7.69,6.95ZM122.59,165.97l-6.95,7.69-7.69-6.95,6.95-7.69,7.69,6.95ZM129.76,158.04l-6.95,7.69-7.69-6.95,6.95-7.69,7.69,6.95ZM136.92,150.11l-6.95,7.69-7.69-6.95,6.95-7.69,7.69,6.95ZM144.09,142.18l-6.95,7.69-7.69-6.95,6.95-7.69,7.69,6.95ZM151.26,134.26l-6.95,7.69-7.69-6.95,6.95-7.69,7.69,6.95ZM158.42,126.33l-6.95,7.69-7.69-6.95,6.95-7.69,7.69,6.95ZM165.59,118.4l-6.95,7.69-7.69-6.95,6.95-7.69,7.69,6.95ZM172.75,110.47l-6.95,7.69-7.69-6.95,6.95-7.69,7.69,6.95ZM179.92,102.54l-6.95,7.69-7.69-6.95,6.95-7.69,7.69,6.95ZM187.09,94.61l-6.95,7.69-7.69-6.95,6.95-7.69,7.69,6.95ZM194.25,86.69l-6.95,7.69-7.69-6.95,6.95-7.69,7.69,6.95ZM201.42,78.76l-6.95,7.69-7.69-6.95,6.95-7.69,7.69,6.95ZM208.59,70.83l-6.95,7.69-7.69-6.95,6.95-7.69,7.69,6.95ZM215.75,62.9l-6.95,7.69-7.69-6.95,6.95-7.69,7.69,6.95ZM222.92,54.97l-6.95,7.69-7.69-6.95,6.95-7.69,7.69,6.95ZM230.09,47.05l-6.95,7.69-7.69-6.95,6.95-7.69,7.69,6.95ZM237.25,39.12l-6.95,7.69-7.69-6.95,6.95-7.69,7.69,6.95ZM244.42,31.19l-6.95,7.69-7.69-6.95,6.95-7.69,7.69,6.95ZM251.58,23.26l-6.95,7.69-7.69-6.95,6.95-7.69,7.69,6.95ZM258.75,15.33l-6.95,7.69-7.69-6.95,6.95-7.69,7.69,6.95ZM265.92,7.4l-6.95,7.69-7.69-6.95,6.95-7.69,7.69,6.95Z"/>
        </g>
      </g>
    </g>
  </g>
</svg>